<svg version="1.1" id="Layer_1" xmlns="http://www.w3.org/2000/svg" xmlns:xlink="http://www.w3.org/1999/xlink" x="0px" y="0px"
	 width="100%" viewBox="0 0 500 500" enable-background="new 0 0 500 500" xml:space="preserve">
<path fill="#000000" opacity="1.000000" stroke="none" 
	d="
M287.000000,501.000000 
	C191.333359,501.000000 96.166710,501.000000 1.000051,501.000000 
	C1.000034,334.333405 1.000034,167.666794 1.000017,1.000141 
	C167.666565,1.000094 334.333130,1.000094 500.999756,1.000047 
	C500.999847,167.666519 500.999847,334.333038 500.999939,500.999786 
	C429.833344,501.000000 358.666656,501.000000 287.000000,501.000000 
M271.449310,359.136658 
	C271.259949,359.409943 271.070587,359.683228 270.360168,360.172485 
	C269.909271,360.500946 269.458374,360.829437 268.351593,361.264069 
	C263.319977,365.694763 258.130005,369.962982 253.335739,374.637146 
	C251.452499,376.473236 249.283798,379.204742 249.258224,381.550415 
	C249.152634,391.231903 249.819000,400.921783 250.249573,411.821442 
	C252.665283,410.253235 254.255920,409.502289 255.486603,408.362671 
	C257.986938,406.047302 260.142029,403.349304 262.703766,401.111633 
	C276.711304,388.875946 290.875763,376.819183 304.836090,364.530273 
	C317.013367,353.810944 328.991699,342.865570 341.684814,331.735718 
	C347.438843,326.659119 353.212250,321.604218 358.942291,316.500671 
	C366.970093,309.350555 374.965607,302.164154 383.618225,294.776611 
	C386.913483,291.917755 390.336182,289.187469 393.427490,286.122925 
	C394.374451,285.184113 395.132019,282.998901 394.667084,281.984619 
	C394.191132,280.946381 392.119385,280.129852 390.729462,280.103699 
	C382.108582,279.941284 373.482605,279.990784 364.859375,280.075348 
	C363.608582,280.087616 362.048889,280.293457 361.166107,281.040619 
	C355.017365,286.244629 349.009460,291.615082 342.250854,297.019165 
	C338.023315,300.870087 333.795776,304.720978 329.956207,308.907227 
	C329.825928,308.793335 329.695679,308.679413 328.970367,308.808350 
	C327.644623,309.932709 326.318878,311.057098 324.390839,312.266479 
	C323.914459,313.143463 323.438080,314.020477 322.264709,315.053009 
	C318.182678,318.710815 314.140503,322.414368 310.009979,326.016571 
	C302.345062,332.701111 294.628540,339.326538 286.350128,346.301971 
	C285.383270,347.184113 284.406647,348.055817 283.451385,348.950378 
	C280.602722,351.618073 277.762512,354.294769 274.298737,357.023346 
	C273.846283,357.365631 273.393860,357.707916 272.549377,358.232635 
	C272.301392,358.408081 272.146698,358.644623 271.970978,358.923462 
	C271.970978,358.923462 271.947723,359.037018 271.449310,359.136658 
M258.887634,139.943146 
	C258.887634,139.943146 258.904541,140.065002 258.473358,140.197418 
	C258.209381,140.379883 258.054535,140.629959 257.962891,140.942535 
	C257.962891,140.942535 257.952515,140.987579 257.222839,140.995224 
	C252.772873,144.235336 251.661880,147.131668 254.363190,149.490707 
	C258.703796,153.281372 263.147400,157.036713 267.975281,160.141861 
	C269.652161,161.220398 273.117279,161.195862 274.863831,160.157791 
	C279.197906,157.581818 283.012115,154.131256 287.692322,150.761978 
	C300.470886,143.042007 313.442566,135.852493 329.716858,135.499756 
	C331.201294,135.001816 332.729980,133.977783 334.162445,134.098175 
	C339.970703,134.586304 345.756561,136.002335 351.536438,135.930359 
	C355.286469,135.883667 358.030792,137.629349 361.150787,138.741379 
	C363.206146,139.473938 365.054077,140.788345 367.733093,141.995651 
	C371.474945,144.362762 375.216827,146.729889 379.234314,149.729858 
	C380.494934,150.737228 381.868988,151.632568 382.995300,152.772629 
	C386.610657,156.432220 390.134460,160.182312 394.003540,164.456161 
	C394.962311,165.656784 395.921051,166.857407 397.027283,168.857910 
	C397.986694,169.572113 398.935303,170.889023 399.907227,170.906509 
	C408.797363,171.066406 417.691589,171.000519 427.160217,171.000519 
	C426.804474,161.020828 422.179565,153.673859 415.999359,146.235077 
	C412.037354,141.811356 408.075378,137.387619 403.819183,132.304062 
	C399.209351,128.927414 394.599518,125.550758 389.334839,121.862717 
	C379.887878,117.968697 370.440948,114.074684 360.488129,110.052910 
	C360.319458,110.095459 360.150818,110.138000 359.249878,110.045601 
	C358.508759,110.089066 357.767639,110.132538 356.225769,110.005493 
	C347.472382,109.426163 338.718994,108.846840 329.467255,108.101074 
	C329.271942,108.379669 329.076660,108.658272 328.944214,108.960159 
	C328.944214,108.960159 328.895905,108.913239 328.058136,108.977417 
	C319.669708,111.170876 311.242279,113.227188 302.903595,115.595779 
	C294.297089,118.040443 286.255402,121.835945 278.756927,126.727654 
	C272.475281,130.825546 266.244720,135.001785 259.478668,139.063568 
	C259.321869,139.348770 259.165070,139.633972 258.887634,139.943146 
M149.968933,256.941437 
	C149.968933,256.941437 149.952103,257.060089 149.478256,257.141754 
	C149.168320,257.323822 149.024414,257.594269 148.970673,257.969208 
	C148.970673,257.969208 148.976898,258.046539 148.375793,258.423615 
	C147.841553,259.360931 147.141068,260.242157 146.802582,261.245514 
	C145.519287,265.049377 140.255508,267.439911 142.790405,273.006287 
	C159.013550,273.006287 175.286148,272.765411 191.544281,273.144836 
	C196.806335,273.267639 199.158127,270.889465 200.965683,266.426636 
	C200.965683,266.426636 201.019882,266.126129 201.643890,265.851013 
	C202.145218,265.055450 202.549103,264.173279 203.165421,263.479889 
	C205.383636,260.984283 207.673508,258.552399 209.973206,256.020508 
	C209.973206,256.020508 209.900803,256.063904 209.979965,256.829071 
	C211.132858,259.195221 212.207947,261.603180 213.453781,263.919342 
	C216.680237,269.917603 219.865631,275.944763 223.352448,281.790344 
	C224.043289,282.948547 226.055771,283.984589 227.367065,283.883850 
	C228.318451,283.810699 229.444839,281.887207 229.919159,280.580444 
	C230.954407,277.728180 231.681168,274.757660 232.430466,271.809174 
	C233.939178,265.872437 235.378738,259.918091 236.944901,253.487915 
	C236.944901,253.487915 236.833908,253.007599 237.187088,252.332489 
	C238.073029,249.219757 238.958969,246.107010 239.981659,242.209015 
	C240.859787,239.325394 242.382843,236.457306 242.452713,233.554230 
	C242.539978,229.928131 246.499069,226.860703 244.070557,222.453857 
	C244.394791,221.996719 244.719025,221.539581 245.683060,220.735703 
	C246.598923,218.592392 247.514771,216.449066 248.707001,213.658997 
	C250.262360,219.363281 251.688309,224.334457 252.965027,229.343628 
	C254.411880,235.020294 255.682953,240.741928 257.153687,246.412033 
	C257.322510,247.062836 258.281219,247.508728 258.973267,248.892578 
	C260.971741,255.615463 262.970245,262.338348 265.020386,269.880798 
	C266.337982,270.912994 267.635742,272.810181 268.976318,272.840912 
	C279.909454,273.091705 290.850891,273.037140 301.789246,272.978241 
	C305.550140,272.957977 306.642853,270.879395 304.714447,267.634827 
	C302.809998,264.430573 301.106842,261.036621 298.742676,258.203857 
	C297.473145,256.682678 295.000061,256.165924 292.200195,255.047806 
	C287.153015,255.330399 282.105804,255.612976 277.039368,255.968063 
	C277.039368,255.968063 277.108063,255.937943 277.017822,255.115646 
	C274.322845,244.568466 271.742310,233.989868 268.860413,223.494019 
	C268.037720,220.497787 266.340668,217.741638 264.976837,214.434265 
	C264.976837,214.434265 264.824127,214.014923 264.956360,213.191010 
	C264.395935,210.589096 263.937286,207.960220 263.255707,205.390427 
	C261.345825,198.189331 259.314545,191.020493 257.387604,183.823807 
	C255.855530,178.101807 254.603027,172.296295 252.842331,166.647583 
	C251.885605,163.578140 250.127487,160.758499 248.730820,157.826187 
	C248.154007,157.888077 247.577194,157.949982 247.000366,158.011887 
	C245.350403,162.655136 243.379349,167.213226 242.120438,171.960190 
	C239.830627,180.594269 238.206818,189.406616 235.862991,198.024323 
	C232.434174,210.631348 228.745697,223.172653 224.880920,235.653107 
	C223.774841,239.224930 221.677429,242.489761 219.977722,245.111343 
	C217.046249,239.565414 214.188110,233.979004 211.156494,228.488358 
	C209.258591,225.051010 206.858612,225.020813 204.857132,228.309769 
	C202.866837,231.580322 200.923248,234.884933 199.105087,238.253372 
	C196.299622,243.450958 193.618439,248.715652 190.136108,254.330643 
	C188.548920,254.556061 186.962906,254.966476 185.374329,254.976654 
	C175.609741,255.039154 165.844070,254.961502 156.080078,255.060715 
	C154.388046,255.077896 152.702332,255.716202 150.565491,256.193817 
	C150.273666,256.364166 150.114517,256.617737 149.968933,256.941437 
M272.982452,188.004883 
	C272.982452,188.004883 272.898010,188.078903 272.973907,188.866257 
	C272.511810,192.686874 274.661621,194.271118 278.832672,194.961014 
	C286.550995,194.961456 294.287750,195.291321 301.982025,194.861526 
	C308.521790,194.496216 314.307373,199.968002 314.361450,208.322922 
	C311.007111,215.811600 305.107422,218.622391 297.118469,218.036148 
	C293.149902,217.744934 289.109314,217.694199 285.166779,218.128769 
	C283.419983,218.321320 281.835541,219.986710 280.040283,221.845276 
	C280.667175,225.863983 281.521790,229.863785 281.857574,233.906662 
	C282.199493,238.023895 284.419556,239.323975 288.114197,238.990082 
	C291.271820,238.704712 293.918365,239.109283 295.355377,242.545593 
	C295.785034,243.572998 297.206238,244.185745 298.041016,245.717636 
	C300.083679,248.486252 302.126343,251.254883 304.057251,254.725204 
	C307.387054,259.668121 310.552368,264.735260 314.139099,269.484131 
	C315.337006,271.070221 317.600433,272.814911 319.397064,272.837006 
	C338.204285,273.068359 357.015900,273.006775 375.825256,272.878479 
	C377.480438,272.867188 379.741943,272.301910 380.664520,271.148315 
	C383.399323,267.728699 385.592743,263.877777 388.021271,260.211029 
	C389.964996,257.276276 388.984741,255.095703 385.446594,255.066742 
	C377.295074,254.999985 369.141968,255.128098 360.061188,255.048965 
	C352.926758,255.031845 345.784088,254.803024 338.661041,255.079376 
	C334.580231,255.237686 331.516205,254.600479 329.525391,250.542725 
	C328.622192,248.701843 326.574310,247.422562 324.987488,245.183731 
	C323.015991,242.426682 321.044464,239.669632 318.606445,236.260178 
	C320.474945,235.115677 322.600189,234.286484 324.079041,232.809891 
	C327.177277,229.716385 329.935150,226.282028 333.179993,222.335892 
	C334.731354,218.553604 336.282715,214.771332 337.991028,210.181091 
	C338.321899,208.604797 338.984070,207.016724 338.928467,205.454193 
	C338.626312,196.964493 335.532013,189.482895 329.749176,183.327057 
	C323.647583,176.831894 316.252136,172.804260 306.069000,173.013275 
	C297.040192,173.064743 288.011383,173.116211 278.107117,173.019836 
	C276.453583,173.014221 274.630676,172.573654 273.196686,173.131927 
	C271.901855,173.636032 270.102051,175.276978 270.152863,176.338638 
	C270.294617,179.299423 271.281158,182.219788 271.948639,185.836044 
	C272.271729,186.589569 272.594849,187.343109 272.982452,188.004883 
M58.055958,183.788879 
	C57.771694,186.175049 57.487431,188.561218 57.073368,191.878174 
	C57.106777,196.582809 57.140186,201.287445 57.043465,206.882614 
	C57.093369,209.575821 57.143276,212.269012 57.061474,215.786438 
	C57.369869,217.865158 57.678268,219.943893 57.997704,222.765244 
	C58.332901,223.843491 58.668098,224.921738 59.378506,226.684418 
	C60.633816,231.377899 61.803024,236.096512 63.164330,240.759048 
	C65.280144,248.005814 66.670876,249.011871 74.142433,248.984299 
	C79.748695,248.963608 85.354698,248.872849 91.734009,248.921188 
	C94.636032,249.019516 95.588715,247.552155 94.557854,244.991959 
	C93.854118,243.244202 92.718994,241.670105 91.914871,239.240097 
	C90.604935,234.902908 89.294998,230.565735 87.377548,225.705383 
	C86.862465,221.134338 86.347382,216.563309 85.947968,211.068619 
	C86.240829,205.043716 86.533684,199.018814 86.954628,192.192581 
	C88.320351,187.126190 89.686066,182.059799 90.992996,176.208069 
	C92.730713,170.872925 94.653801,165.921860 99.325562,162.005402 
	C104.106575,157.997375 107.857796,152.760956 112.783112,147.989624 
	C113.897614,147.014664 115.012115,146.039688 116.721581,144.815689 
	C119.715012,143.782623 122.758072,142.873047 125.692795,141.693878 
	C135.402512,137.792496 145.313339,135.026215 156.845825,135.946136 
	C161.208130,136.336594 165.570419,136.727036 170.121719,137.570374 
	C170.121719,137.570374 170.507599,137.873550 170.507599,137.873550 
	C170.507599,137.873550 170.991837,137.793991 171.728531,137.956558 
	C173.154358,138.237366 174.580200,138.518173 176.664658,138.935059 
	C177.109192,138.895294 177.553711,138.855530 178.629669,139.233841 
	C183.403381,141.173386 188.177109,143.112930 193.067856,145.751694 
	C194.670395,146.522141 196.272919,147.292587 197.963409,148.784943 
	C203.164505,152.279327 208.746277,155.336868 213.433319,159.421158 
	C216.574692,162.158585 218.878036,161.681747 221.549591,159.780334 
	C226.142471,156.511429 230.697189,153.169495 235.055695,149.599152 
	C237.157135,147.877716 238.171860,145.301529 235.349335,143.337463 
	C227.346054,137.768326 219.198395,132.406647 210.812515,126.329437 
	C206.905380,124.537674 202.998230,122.745903 198.769669,120.295578 
	C188.719543,115.267097 178.150131,111.867867 166.299957,110.062950 
	C164.203354,110.097755 162.106766,110.132561 159.268845,109.737495 
	C154.180862,109.801155 149.092880,109.864822 143.089096,109.992050 
	C133.028915,108.922005 124.251503,113.679298 114.281471,116.095718 
	C112.518959,117.052597 110.756454,118.009476 108.472031,119.039719 
	C108.304291,119.091957 108.136559,119.144203 107.325600,119.121269 
	C106.854904,119.738976 106.384201,120.356682 105.453171,121.046364 
	C105.453171,121.046364 105.006775,121.179893 104.308784,121.051155 
	C102.855057,121.991776 101.401337,122.932388 99.249649,124.012131 
	C87.667923,131.135574 77.893127,140.090958 70.360100,152.190643 
	C69.572678,153.451584 68.785248,154.712524 67.506172,156.479935 
	C65.989510,160.622391 64.472847,164.764832 62.181465,169.051239 
	C60.856895,173.697296 59.532326,178.343369 58.055958,183.788879 
M341.035187,235.661011 
	C341.083191,236.100021 341.131226,236.539017 341.040009,237.864197 
	C341.032257,239.186829 340.995544,240.510025 341.021667,241.831985 
	C341.148346,248.236710 341.911011,249.024353 348.090729,248.992126 
	C352.386810,248.969727 356.682587,248.878952 361.798523,248.966675 
	C370.728546,249.224411 364.972382,241.332779 367.946655,237.963516 
	C378.358765,237.963516 388.942474,237.912964 399.523773,238.049866 
	C400.473083,238.062134 401.406708,239.287506 402.150238,240.816849 
	C402.165131,249.358475 402.179504,257.900116 402.195038,266.441742 
	C402.206848,272.922119 402.430084,273.129211 409.816681,272.923676 
	C410.883209,272.885803 411.949738,272.847931 413.835785,272.958191 
	C416.549835,272.710571 419.865753,273.967712 421.807465,269.942291 
	C424.191284,266.639618 427.955780,263.605408 428.661346,259.976410 
	C429.986237,253.162247 429.542908,246.004272 429.960602,238.060791 
	C429.585114,221.033340 429.209595,204.005890 428.946411,186.074081 
	C428.946411,182.963577 428.946411,179.853088 428.946411,176.178894 
	C420.788910,176.178894 412.908997,176.178894 404.269684,176.039291 
	C403.194611,178.386810 401.264343,180.707367 401.189331,183.086380 
	C400.823273,194.701523 400.952393,206.332291 400.004303,217.992004 
	C391.011383,217.977081 382.018494,217.962143 372.570648,217.322952 
	C370.643402,216.888901 368.716125,216.454849 366.956604,215.129623 
	C366.916107,212.414810 366.875580,209.700012 366.958099,206.321854 
	C366.914246,205.876175 366.870392,205.430511 366.977356,204.068893 
	C366.938110,199.718979 366.898895,195.369080 367.006012,190.096115 
	C366.962616,186.649384 367.322784,183.132599 366.740814,179.779343 
	C366.318756,177.347687 367.478821,173.462372 362.057007,173.028381 
	C357.019073,173.334061 351.905426,174.311050 346.964874,173.753677 
	C342.174744,173.213257 341.013275,175.096100 341.030670,179.075760 
	C341.072815,188.715652 341.133118,198.355484 341.085938,208.918015 
	C341.113281,212.942490 341.140625,216.966965 341.014465,221.907043 
	C341.077515,225.922409 341.140594,229.937759 341.056641,234.476913 
	C341.094940,234.654175 341.133270,234.831421 341.035187,235.661011 
M122.117493,246.736572 
	C122.074013,247.487610 122.030533,248.238632 121.284470,249.104553 
	C118.521210,251.122986 115.757942,253.141403 112.064560,255.042816 
	C98.901230,255.042816 85.737900,255.042816 71.861786,255.042816 
	C72.310081,257.119934 72.625839,258.582947 73.242035,260.673676 
	C75.702019,264.709290 77.873161,268.969055 80.752686,272.679047 
	C82.050896,274.351624 84.731544,275.782593 86.835861,275.855591 
	C96.452934,276.189148 106.088295,275.961151 115.716621,276.015839 
	C123.271133,276.058716 129.801193,273.701355 135.665939,267.831329 
	C138.704666,263.214783 141.743393,258.598236 144.721359,253.341446 
	C141.991791,251.512802 143.937836,249.759216 144.947281,247.143845 
	C145.291473,245.384781 145.925568,243.626862 145.932388,241.866486 
	C145.973648,231.234055 145.871399,220.601074 145.935150,209.178421 
	C145.888809,208.117020 145.842468,207.055634 145.920395,205.504166 
	C145.885468,205.339294 145.850555,205.174408 145.936539,204.077988 
	C145.953110,195.257767 146.121521,186.432785 145.844315,177.621811 
	C145.795212,176.061310 143.966919,173.306595 142.828156,173.236084 
	C136.085968,172.818619 129.304810,173.030182 122.228783,173.030182 
	C122.228783,185.092941 122.228783,196.529846 122.067009,208.896484 
	C122.107460,219.266495 122.147919,229.636490 122.034584,240.851456 
	C122.092964,242.564163 122.151344,244.276886 122.117493,246.736572 
M154.052078,217.921875 
	C154.042267,226.833145 154.133621,235.746292 153.967773,244.654663 
	C153.909714,247.774063 154.773697,249.195816 158.118256,249.035049 
	C163.057434,248.797638 168.012436,248.889236 173.783844,248.965973 
	C177.363037,248.997162 177.011810,246.456787 177.009537,244.092804 
	C176.997879,231.943008 177.009277,219.793213 177.008621,207.643417 
	C177.008194,199.538193 181.457520,195.024811 189.463806,195.009079 
	C197.778824,194.992722 206.093918,194.944229 214.408844,194.962662 
	C217.687027,194.969940 220.464081,194.585220 220.086334,190.206726 
	C220.025452,189.501053 220.714752,188.762848 220.855835,188.002319 
	C221.750061,183.181061 222.587616,178.349304 223.536255,173.000122 
	C210.755005,173.000122 199.285431,173.250000 187.833069,172.913589 
	C180.003006,172.683578 173.018188,174.656662 166.770248,179.147308 
	C160.094986,183.945099 155.273666,190.378983 154.164490,198.549759 
	C153.345184,204.585205 154.124664,210.837692 154.052078,217.921875 
M182.561050,330.386627 
	C179.719711,328.318909 176.878387,326.251190 173.428940,323.821503 
	C170.379349,321.399719 167.199051,319.120544 164.335693,316.495605 
	C162.919067,315.196991 162.385330,312.915039 160.941833,311.669220 
	C149.946442,302.179291 138.905731,292.736664 127.661728,283.545258 
	C125.830154,282.048035 122.948631,281.272827 120.513504,281.179596 
	C112.538895,280.874268 104.544189,280.934296 96.562378,281.100952 
	C94.793816,281.137878 93.046410,282.187958 91.289253,282.771484 
	C92.124306,284.269989 92.633942,286.135193 93.845078,287.209869 
	C105.150925,297.241821 116.577126,307.138153 128.282333,317.667786 
	C130.820984,319.794861 133.359634,321.921967 136.062256,324.669952 
	C136.715302,325.125031 137.368347,325.580109 138.257889,326.422729 
	C138.457550,326.668365 138.712219,326.824097 139.019943,326.960571 
	C139.019943,326.960571 139.090378,326.955017 139.376816,327.572815 
	C147.996628,335.043457 156.616440,342.514069 165.455475,350.601166 
	C175.245468,359.169189 185.027695,367.746094 194.827408,376.302979 
	C207.780411,387.613312 220.708908,398.952484 233.764359,410.143494 
	C235.136841,411.320007 237.292023,411.583466 239.898438,412.582764 
	C239.898438,401.881805 240.239655,392.420044 239.630112,383.019928 
	C239.497391,380.973206 235.962234,379.147156 233.445389,376.906738 
	C232.649521,376.226410 231.853668,375.546051 230.746353,374.252258 
	C222.513550,366.799530 214.280731,359.346832 205.746597,351.288788 
	C198.171646,344.588257 190.596695,337.887695 182.973038,331.027893 
	C182.973038,331.027893 182.813263,330.980804 182.561050,330.386627 
z"/>
<path fill="#034697" opacity="1.000000" stroke="none" 
	d="
M138.021393,326.035156 
	C137.368347,325.580109 136.715302,325.125031 136.175232,324.132507 
	C134.789337,318.854919 131.565109,316.327637 127.968483,317.073730 
	C116.577126,307.138153 105.150925,297.241821 93.845078,287.209869 
	C92.633942,286.135193 92.124306,284.269989 91.289261,282.771484 
	C93.046410,282.187958 94.793816,281.137878 96.562378,281.100952 
	C104.544189,280.934296 112.538895,280.874268 120.513504,281.179596 
	C122.948631,281.272827 125.830154,282.048035 127.661728,283.545258 
	C138.905731,292.736664 149.946442,302.179291 160.941833,311.669220 
	C162.385330,312.915039 162.919067,315.196991 164.335693,316.495605 
	C167.199051,319.120544 170.379349,321.399719 173.883347,324.308716 
	C175.616150,328.977173 178.034912,331.595734 182.813263,330.980804 
	C182.813263,330.980804 182.973038,331.027893 183.007645,331.453735 
	C187.878296,337.210205 192.714340,342.540802 198.150574,348.532959 
	C193.268372,348.911285 190.342026,346.174561 186.947372,344.535614 
	C182.567261,342.420837 177.944321,339.499329 173.382767,339.420349 
	C168.328491,339.332886 164.050858,338.292786 159.675659,336.231750 
	C158.304825,335.585968 156.516663,335.892120 155.007172,335.457855 
	C153.152466,334.924377 151.075851,334.452789 149.650558,333.279694 
	C146.419754,330.620453 144.257202,326.354218 139.090378,326.955017 
	C139.090378,326.955017 139.019943,326.960571 138.877899,326.756042 
	C138.527908,326.337555 138.289749,326.165466 138.021393,326.035156 
z"/>
<path fill="#707581" opacity="1.000000" stroke="none" 
	d="
M341.057922,332.020081 
	C328.991699,342.865570 317.013367,353.810944 304.836090,364.530273 
	C290.875763,376.819183 276.711304,388.875946 262.703766,401.111633 
	C260.142029,403.349304 257.986938,406.047302 255.486603,408.362671 
	C254.255920,409.502289 252.665283,410.253235 250.249573,411.821442 
	C249.819000,400.921783 249.152634,391.231903 249.258224,381.550415 
	C249.283798,379.204742 251.452499,376.473236 253.335739,374.637146 
	C258.130005,369.962982 263.319977,365.694763 268.656860,361.570068 
	C268.308472,363.917816 267.654846,365.959503 266.703857,368.057465 
	C265.776184,368.698578 265.145874,369.283417 264.515564,369.868256 
	C264.843781,370.113373 265.172028,370.358521 265.500275,370.603638 
	C265.999756,369.735352 266.499268,368.867065 267.340332,367.930908 
	C280.497986,359.382538 293.283691,350.855499 306.149231,342.450745 
	C309.853607,340.030762 313.670776,337.707703 317.678162,335.866791 
	C319.162903,335.184692 321.342010,336.014191 323.204468,336.154327 
	C322.818481,337.918274 322.643036,339.765533 321.987274,341.422729 
	C321.333313,343.075287 320.197845,344.537292 319.273499,346.082886 
	C319.673309,346.394836 320.073151,346.706787 320.472992,347.018738 
	C322.862366,344.887146 325.204987,342.700165 327.651581,340.636414 
	C331.741425,337.186462 334.873352,332.217926 341.057922,332.020081 
z"/>
<path fill="#B6B9C0" opacity="1.000000" stroke="none" 
	d="
M328.986633,135.729340 
	C313.442566,135.852493 300.470886,143.042007 287.002258,150.943878 
	C283.480408,152.266190 281.560272,151.288574 279.305786,149.221664 
	C276.702148,146.834671 275.387207,142.701340 270.507355,142.886169 
	C265.489319,143.076218 260.528961,142.551437 257.323334,148.048813 
	C257.533081,145.695068 257.742798,143.341324 257.952515,140.987579 
	C257.952515,140.987579 257.962891,140.942535 258.172974,140.839996 
	C258.617828,140.560593 258.791656,140.336441 258.904541,140.065002 
	C258.904541,140.065002 258.887634,139.943146 259.135956,139.835632 
	C259.618134,139.565857 259.820557,139.370926 259.991516,139.143311 
	C266.244720,135.001785 272.475281,130.825546 278.756927,126.727654 
	C286.255402,121.835945 294.297089,118.040443 302.903595,115.595779 
	C311.242279,113.227188 319.669708,111.170876 328.547241,109.344803 
	C330.812897,110.475090 332.563873,111.815872 334.370605,111.895866 
	C340.554962,112.169708 346.758911,112.000885 352.955353,112.000885 
	C344.232941,117.158745 343.637360,119.059723 347.326111,129.306427 
	C347.734009,130.439545 347.120453,131.940353 346.937164,133.684341 
	C338.567200,127.162323 330.930817,128.280441 328.986633,135.729340 
z"/>
<path fill="#0299D7" opacity="1.000000" stroke="none" 
	d="
M245.043259,221.082443 
	C244.719025,221.539581 244.394791,221.996719 243.588074,222.767639 
	C242.442322,223.712158 241.366714,224.240677 241.181000,224.989807 
	C239.697433,230.974274 238.382324,237.000488 237.009903,243.410614 
	C236.581619,245.329178 235.850433,246.845520 235.823044,248.374466 
	C235.795486,249.912308 236.468109,251.462708 236.833923,253.007599 
	C236.833908,253.007599 236.944901,253.487915 236.542114,253.741623 
	C235.431610,254.009476 234.723877,254.023621 233.720459,253.852356 
	C230.714600,250.936661 228.188995,250.213181 224.926956,253.278168 
	C223.721542,254.410767 220.934998,254.685532 219.160416,254.226715 
	C214.554672,253.035843 214.051544,253.277191 214.768707,258.044983 
	C214.915405,259.020172 214.927155,260.015686 214.719421,260.813263 
	C212.925415,259.104431 211.413101,257.584167 209.900803,256.063904 
	C209.900803,256.063904 209.973206,256.020508 209.964020,255.683319 
	C209.498077,253.993927 209.041321,252.641708 208.584564,251.289474 
	C208.119461,251.259872 207.654358,251.230255 207.189240,251.200653 
	C206.123947,253.132080 205.058655,255.063507 203.664856,256.926086 
	C200.629898,254.239838 197.841873,254.069611 194.784180,256.352142 
	C194.084030,256.874786 192.941193,256.804413 191.985596,256.668335 
	C191.607590,255.537140 191.246078,254.744507 190.884552,253.951874 
	C193.618439,248.715652 196.299622,243.450958 199.105087,238.253372 
	C200.923248,234.884933 202.866837,231.580322 204.857132,228.309769 
	C206.858612,225.020813 209.258591,225.051010 211.156494,228.488358 
	C214.188110,233.979004 217.046249,239.565414 220.016266,245.879395 
	C220.739548,248.061768 221.424301,249.476089 222.109055,250.890427 
	C227.695648,236.672348 232.311966,222.810867 236.302582,208.771530 
	C240.231537,194.949158 242.881927,180.752594 248.755981,167.234375 
	C252.503647,177.329865 254.991119,187.480820 258.069580,197.449280 
	C259.822388,203.125168 262.540619,208.502914 264.824127,214.014923 
	C264.824127,214.014923 264.976837,214.434265 264.983765,215.030396 
	C265.321198,218.751633 265.651703,221.876740 265.641907,224.931091 
	C263.309540,223.263626 261.317505,221.666901 258.931763,219.754578 
	C258.141052,222.722214 257.569305,224.868027 256.662537,226.879303 
	C255.381866,223.850357 254.416077,220.962387 253.495468,218.060059 
	C252.167038,213.872040 250.871368,209.673615 249.561737,205.479630 
	C248.891006,205.575287 248.220276,205.670929 247.549561,205.766586 
	C247.050552,210.943573 241.853165,215.119263 245.043259,221.082443 
z"/>
<path fill="#767B86" opacity="1.000000" stroke="none" 
	d="
M341.371368,331.877899 
	C334.873352,332.217926 331.741425,337.186462 327.651581,340.636414 
	C325.204987,342.700165 322.862366,344.887146 320.472992,347.018738 
	C320.073151,346.706787 319.673309,346.394836 319.273499,346.082886 
	C320.197845,344.537292 321.333313,343.075287 321.987274,341.422729 
	C322.643036,339.765533 322.818481,337.918274 323.204468,336.154327 
	C321.342010,336.014191 319.162903,335.184692 317.678162,335.866791 
	C313.670776,337.707703 309.853607,340.030762 306.149231,342.450745 
	C293.283691,350.855499 280.497986,359.382538 267.340942,367.931519 
	C267.000000,368.000000 267.001221,368.001221 267.001221,368.001221 
	C267.654846,365.959503 268.308472,363.917816 268.984802,361.516998 
	C269.458374,360.829437 269.909271,360.500946 270.829834,359.950012 
	C271.564026,359.542786 271.780090,359.312622 271.947723,359.037018 
	C271.947723,359.037018 271.970978,358.923462 272.203918,358.819458 
	C272.656525,358.532776 272.824738,358.311035 272.941437,358.050201 
	C273.393860,357.707916 273.846283,357.365631 274.978088,356.986816 
	C278.513275,355.124542 281.607513,353.571716 284.131775,351.366486 
	C285.551636,350.126099 286.030670,347.808777 286.933502,345.976593 
	C294.628540,339.326538 302.345062,332.701111 310.009979,326.016571 
	C314.140503,322.414368 318.182678,318.710815 322.682007,315.302002 
	C324.016724,318.228729 325.400940,317.706116 327.226440,316.343414 
	C332.280151,312.570953 337.044281,308.142578 342.624542,305.402374 
	C352.536835,300.534821 362.966644,296.721222 373.179932,292.466705 
	C373.305054,293.255035 373.430206,294.043335 373.555328,294.831635 
	C375.541809,295.013977 377.525452,295.276337 379.515900,295.347870 
	C380.663208,295.389069 381.821564,295.121765 382.974945,294.993317 
	C374.965607,302.164154 366.970093,309.350555 358.942291,316.500671 
	C353.212250,321.604218 347.438843,326.659119 341.371368,331.877899 
z"/>
<path fill="#0475C8" opacity="1.000000" stroke="none" 
	d="
M107.968834,119.196442 
	C108.136559,119.144203 108.304291,119.091957 109.078430,119.017059 
	C112.193909,119.457283 114.353310,119.262505 114.977409,116.180260 
	C124.251503,113.679298 133.028915,108.922005 143.695099,110.325691 
	C149.601334,112.534843 154.872360,113.478416 160.010162,110.167366 
	C162.106766,110.132561 164.203354,110.097755 166.857208,110.406082 
	C171.587448,112.705132 175.760422,114.661041 179.189102,116.268089 
	C175.514404,118.454407 170.830215,120.514679 167.048172,123.659782 
	C161.199692,128.523285 161.461121,128.837662 165.536652,134.000198 
	C161.261826,134.006653 157.449112,134.006653 152.789459,134.006653 
	C154.378647,134.927887 155.152740,135.376633 155.926834,135.825363 
	C145.313339,135.026215 135.402512,137.792496 125.692795,141.693878 
	C122.758072,142.873047 119.715012,143.782623 116.071625,144.923248 
	C114.951225,145.014648 114.480774,144.998474 114.079002,144.638474 
	C115.439072,143.119339 116.646164,141.830780 118.040062,140.793198 
	C120.643517,138.855225 122.043579,136.420471 119.875641,133.639557 
	C117.581718,130.697037 115.186211,127.486450 110.600128,127.940613 
	C106.071037,128.389114 101.523651,128.652908 97.052261,128.672134 
	C98.075775,127.556168 99.031326,126.765785 100.315514,125.891068 
	C102.098358,124.264450 103.552567,122.722168 105.006775,121.179893 
	C105.006775,121.179893 105.453171,121.046364 105.934067,120.892647 
	C106.932915,120.224770 107.450874,119.710602 107.968834,119.196442 
z"/>
<path fill="#A8ADB5" opacity="1.000000" stroke="none" 
	d="
M306.993744,173.171631 
	C316.252136,172.804260 323.647583,176.831894 329.749176,183.327057 
	C335.532013,189.482895 338.626312,196.964493 338.928467,205.454193 
	C338.984070,207.016724 338.321899,208.604797 337.575287,210.507385 
	C332.759064,206.684006 327.362610,206.593643 321.838287,207.120911 
	C319.544800,207.339798 317.264771,207.699371 314.978607,207.994965 
	C314.307373,199.968002 308.521790,194.496216 301.982025,194.861526 
	C294.287750,195.291321 286.550995,194.961456 278.573669,194.590240 
	C278.236450,190.648911 277.295013,187.839828 272.898010,188.078903 
	C272.898010,188.078903 272.982452,188.004883 272.960815,187.758987 
	C272.604218,186.727432 272.269196,185.941757 271.934174,185.156097 
	C271.281158,182.219788 270.294617,179.299423 270.152863,176.338638 
	C270.102051,175.276978 271.901855,173.636032 273.196686,173.131927 
	C274.630676,172.573654 276.453583,173.014221 278.418335,173.384155 
	C280.160706,174.829010 281.494232,176.653137 283.040649,176.856201 
	C288.551025,177.579849 294.171997,177.471985 299.676910,178.222855 
	C303.999817,178.812515 306.426788,177.575500 306.993744,173.171631 
z"/>
<path fill="#024190" opacity="1.000000" stroke="none" 
	d="
M139.233597,327.263916 
	C144.257202,326.354218 146.419754,330.620453 149.650558,333.279694 
	C151.075851,334.452789 153.152466,334.924377 155.007172,335.457855 
	C156.516663,335.892120 158.304825,335.585968 159.675659,336.231750 
	C164.050858,338.292786 168.328491,339.332886 173.382767,339.420349 
	C177.944321,339.499329 182.567261,342.420837 186.947372,344.535614 
	C190.342026,346.174561 193.268372,348.911285 198.150574,348.532959 
	C192.714340,342.540802 187.878296,337.210205 183.031998,331.533386 
	C190.596695,337.887695 198.171646,344.588257 205.947632,351.936829 
	C206.333145,353.043640 206.395538,353.628540 206.720047,353.942566 
	C213.943771,360.932861 221.173950,367.917206 228.496643,374.802979 
	C228.960159,375.238861 230.186401,374.863617 231.057816,374.865723 
	C231.853668,375.546051 232.649521,376.226410 233.777206,377.361877 
	C234.156128,378.687927 234.203247,379.558777 234.257721,380.565704 
	C229.457062,378.903015 225.184525,376.761749 220.684235,376.039337 
	C215.567902,375.218018 210.060974,374.179657 205.536713,378.722565 
	C204.792313,379.470032 201.752884,379.090576 200.686722,378.172333 
	C193.333160,371.838806 186.527145,364.835449 178.912140,358.853119 
	C174.700195,355.544281 171.949783,349.541962 165.236267,349.984680 
	C156.616440,342.514069 147.996628,335.043457 139.233597,327.263916 
z"/>
<path fill="#838A94" opacity="1.000000" stroke="none" 
	d="
M360.989502,255.177124 
	C369.141968,255.128098 377.295074,254.999985 385.446594,255.066742 
	C388.984741,255.095703 389.964996,257.276276 388.021271,260.211029 
	C385.592743,263.877777 383.399323,267.728699 380.664520,271.148315 
	C379.741943,272.301910 377.480438,272.867188 375.825256,272.878479 
	C357.015900,273.006775 338.204285,273.068359 319.397064,272.837006 
	C317.600433,272.814911 315.337006,271.070221 314.139099,269.484131 
	C310.552368,264.735260 307.387054,259.668121 304.410461,254.531906 
	C309.247101,256.774628 313.097504,261.504364 319.176392,258.180573 
	C319.723297,257.881531 320.759613,258.480438 321.569427,258.658844 
	C325.110626,259.438965 328.648773,260.851715 332.194183,260.870544 
	C340.637909,260.915436 349.085724,260.316162 357.530548,259.945648 
	C360.629944,259.809692 362.262634,258.525940 360.989502,255.177124 
z"/>
<path fill="#999EA6" opacity="1.000000" stroke="none" 
	d="
M366.788879,216.020798 
	C368.716125,216.454849 370.643402,216.888901 372.943665,217.999298 
	C373.995728,219.086502 374.670837,219.847336 375.354401,219.855011 
	C383.811920,219.950089 392.271820,220.006195 400.727600,219.862427 
	C401.827942,219.843704 402.908356,218.649643 404.230408,217.669724 
	C404.652618,214.222107 404.842438,211.104767 405.397003,208.009338 
	C414.918427,209.881378 423.921509,200.980255 423.008331,193.506760 
	C422.629395,190.405426 422.226624,187.299377 422.046783,184.183228 
	C421.806000,180.011581 419.164185,178.111908 415.566376,178.179626 
	C412.048889,178.245789 408.551117,179.361649 405.035522,179.633026 
	C405.027252,178.225830 405.028168,177.202362 405.029053,176.178894 
	C412.908997,176.178894 420.788910,176.178894 428.946411,176.178894 
	C428.946411,179.853088 428.946411,182.963577 428.549805,186.703323 
	C427.778900,189.017090 427.113678,190.696030 427.081299,192.387100 
	C426.949829,199.256653 427.012543,206.129929 426.664825,213.068100 
	C418.840973,220.125122 409.642181,222.620468 399.754669,224.080383 
	C381.789429,226.732971 363.914093,229.994080 345.999908,232.543060 
	C346.000519,228.725082 346.002441,225.365280 346.006226,221.755951 
	C346.008118,221.506424 346.010376,221.007370 346.405334,220.929565 
	C352.211456,219.226578 357.622589,217.601425 363.409241,215.980789 
	C364.786163,215.997147 365.787506,216.008972 366.788879,216.020798 
z"/>
<path fill="#033B8A" opacity="1.000000" stroke="none" 
	d="
M165.345871,350.292908 
	C171.949783,349.541962 174.700195,355.544281 178.912140,358.853119 
	C186.527145,364.835449 193.333160,371.838806 200.686722,378.172333 
	C201.752884,379.090576 204.792313,379.470032 205.536713,378.722565 
	C210.060974,374.179657 215.567902,375.218018 220.684235,376.039337 
	C225.184525,376.761749 229.457062,378.903015 234.257721,380.565704 
	C234.203247,379.558777 234.156128,378.687927 234.051575,377.518250 
	C235.962234,379.147156 239.497391,380.973206 239.630112,383.019928 
	C240.239655,392.420044 239.898438,401.881805 239.898438,412.582764 
	C237.292023,411.583466 235.136841,411.320007 233.764359,410.143494 
	C220.708908,398.952484 207.780411,387.613312 194.827408,376.302979 
	C185.027695,367.746094 175.245468,359.169189 165.345871,350.292908 
M208.202164,382.636902 
	C208.014999,382.790924 207.827850,382.944977 207.640686,383.098999 
	C207.733383,383.199371 207.826080,383.299744 207.918777,383.400116 
	C208.085571,383.223633 208.252365,383.047180 208.202164,382.636902 
z"/>
<path fill="#9398A2" opacity="1.000000" stroke="none" 
	d="
M346.001221,233.001221 
	C363.914093,229.994080 381.789429,226.732971 399.754669,224.080383 
	C409.642181,222.620468 418.840973,220.125122 426.668579,213.517975 
	C427.008270,216.602112 427.005371,219.302628 426.646973,222.067245 
	C419.908661,224.794876 413.469666,227.335938 407.187622,230.219055 
	C405.832367,230.841034 405.042877,232.695679 403.530212,233.985565 
	C399.049408,233.997772 395.031219,234.006943 390.545197,234.010620 
	C386.920288,234.003983 383.740265,233.773560 380.614594,234.086365 
	C378.693726,234.278580 376.855988,235.301666 374.624176,236.008926 
	C372.794159,236.063141 371.317535,236.123215 369.848175,236.045837 
	C364.194672,235.748062 363.443878,236.576080 362.920746,242.354767 
	C362.722015,244.550034 361.651581,246.666382 360.978485,248.818710 
	C356.682587,248.878952 352.386810,248.969727 348.090729,248.992126 
	C341.911011,249.024353 341.148346,248.236710 341.021667,241.831985 
	C340.995544,240.510025 341.032257,239.186829 341.314331,237.427277 
	C341.588684,236.990372 341.997894,237.008789 342.044220,237.335144 
	C342.545959,240.009689 343.001373,242.357864 343.456787,244.706039 
	C344.304932,244.660767 345.153076,244.615494 346.001221,244.570221 
	C346.001221,240.714081 346.001221,236.857956 346.000610,233.000916 
	C346.000000,233.000000 346.001221,233.001221 346.001221,233.001221 
z"/>
<path fill="#949BA5" opacity="1.000000" stroke="none" 
	d="
M298.173157,244.988464 
	C297.206238,244.185745 295.785034,243.572998 295.355377,242.545593 
	C293.918365,239.109283 291.271820,238.704712 288.114197,238.990082 
	C284.419556,239.323975 282.199493,238.023895 281.857574,233.906662 
	C281.521790,229.863785 280.667175,225.863983 280.501495,221.501175 
	C289.759644,221.978668 298.410278,225.204834 307.400482,222.849701 
	C314.320496,221.036880 321.171661,219.413101 325.603149,226.415543 
	C328.471222,225.055664 330.652039,224.021667 332.832825,222.987656 
	C329.935150,226.282028 327.177277,229.716385 324.079041,232.809891 
	C322.600189,234.286484 320.474945,235.115677 318.606445,236.260178 
	C321.044464,239.669632 323.015991,242.426682 324.988159,245.870575 
	C322.964691,250.945892 321.742004,246.951447 320.073669,246.172501 
	C315.544617,244.057953 311.051056,241.661972 306.272858,240.410370 
	C304.819153,240.029572 302.528748,243.072678 300.529541,244.410110 
	C299.897827,244.832718 298.967072,244.808319 298.173157,244.988464 
z"/>
<path fill="#0393D0" opacity="1.000000" stroke="none" 
	d="
M256.997559,227.013840 
	C257.569305,224.868027 258.141052,222.722214 258.931763,219.754578 
	C261.317505,221.666901 263.309540,223.263626 265.670654,225.329712 
	C268.121429,233.863052 269.983124,241.994598 272.424561,249.948166 
	C273.119080,252.210785 275.500336,253.955643 277.108063,255.937943 
	C277.108063,255.937943 277.039368,255.968063 277.078613,256.334564 
	C278.511993,257.466644 279.871063,258.804291 281.306641,258.892090 
	C285.869446,259.171326 290.460754,258.984863 295.361755,259.090454 
	C296.906219,260.937256 298.295074,262.580139 299.320984,264.424896 
	C301.816040,268.911438 301.249512,269.920380 296.226532,269.965332 
	C288.435425,270.035034 280.642120,270.058075 272.852203,269.939178 
	C270.220520,269.899048 267.596344,269.367950 264.968719,269.061218 
	C262.970245,262.338348 260.971741,255.615463 259.268066,248.344849 
	C259.819580,246.327271 260.494873,244.786301 260.259369,243.400070 
	C259.326935,237.911682 258.109375,232.471741 256.997559,227.013840 
z"/>
<path fill="#0B63AF" opacity="1.000000" stroke="none" 
	d="
M154.191849,216.993469 
	C154.124664,210.837692 153.345184,204.585205 154.164490,198.549759 
	C155.273666,190.378983 160.094986,183.945099 166.770248,179.147308 
	C173.018188,174.656662 180.003006,172.683578 187.833069,172.913589 
	C199.285431,173.250000 210.755005,173.000122 223.536255,173.000122 
	C222.587616,178.349304 221.750061,183.181061 220.855835,188.002319 
	C220.714752,188.762848 220.025452,189.501053 220.086334,190.206726 
	C220.464081,194.585220 217.687027,194.969940 214.408844,194.962662 
	C206.093918,194.944229 197.778824,194.992722 189.463806,195.009079 
	C181.457520,195.024811 177.008194,199.538193 177.008621,207.643417 
	C177.009277,219.793213 176.997879,231.943008 177.009537,244.092804 
	C177.011810,246.456787 177.363037,248.997162 173.023254,248.701172 
	C167.170868,247.928253 162.079056,247.420120 156.987244,246.912003 
	C156.989014,246.468964 156.990768,246.025940 156.992538,245.582901 
	C157.705032,245.399353 158.407806,245.123886 159.131638,245.047333 
	C163.482300,244.587296 169.760117,245.732178 171.698166,243.342911 
	C174.045532,240.449051 172.725098,234.580078 172.994217,229.530075 
	C172.996735,220.709183 172.996841,212.356705 173.217728,203.749481 
	C178.183121,192.660522 186.992279,189.887894 197.899994,190.945633 
	C201.364761,191.281601 204.889542,190.999069 208.386871,190.998535 
	C216.305267,190.997330 216.302032,190.996246 218.221313,183.355209 
	C218.341522,182.876602 218.514832,182.391922 218.762192,181.967667 
	C221.069183,178.010971 219.198959,176.967514 215.433655,176.983322 
	C203.942642,177.031601 192.403824,176.393616 180.981873,177.283630 
	C175.936752,177.676773 170.490753,180.251465 166.344742,183.337662 
	C157.616776,189.834503 156.012878,199.752075 156.004639,210.424927 
	C156.001480,212.907318 156.001343,214.950912 155.699661,216.993591 
	C154.996017,216.992935 154.593933,216.993195 154.191849,216.993469 
z"/>
<path fill="#7C818D" opacity="1.000000" stroke="none" 
	d="
M383.296570,294.884949 
	C381.821564,295.121765 380.663208,295.389069 379.515900,295.347870 
	C377.525452,295.276337 375.541809,295.013977 373.555328,294.831635 
	C373.430206,294.043335 373.305054,293.255035 373.179932,292.466705 
	C362.966644,296.721222 352.536835,300.534821 342.624542,305.402374 
	C337.044281,308.142578 332.280151,312.570953 327.226440,316.343414 
	C325.400940,317.706116 324.016724,318.228729 323.030457,315.224243 
	C323.438080,314.020477 323.914459,313.143463 324.790833,312.493042 
	C328.805939,313.606293 329.517273,311.435089 329.565399,308.565460 
	C329.695679,308.679413 329.825928,308.793335 330.146851,308.800781 
	C336.524475,306.898590 341.128082,303.404114 342.956451,296.932220 
	C349.009460,291.615082 355.017365,286.244629 361.166107,281.040619 
	C362.048889,280.293457 363.608582,280.087616 364.859375,280.075348 
	C373.482605,279.990784 382.108582,279.941284 390.729462,280.103699 
	C392.119385,280.129852 394.191132,280.946381 394.667084,281.984619 
	C395.132019,282.998901 394.374451,285.184113 393.427490,286.122925 
	C390.336182,289.187469 386.913483,291.917755 383.296570,294.884949 
z"/>
<path fill="#0369BC" opacity="1.000000" stroke="none" 
	d="
M99.986877,125.975403 
	C99.031326,126.765785 98.075775,127.556168 96.689972,128.692184 
	C92.854225,131.843719 89.448730,134.649612 85.584290,137.833649 
	C94.206276,141.024002 99.008919,146.395447 101.787155,153.122421 
	C105.333611,151.266251 108.598495,149.557449 111.912445,147.902069 
	C111.961517,147.955505 112.059776,148.062225 112.059769,148.062225 
	C107.857796,152.760956 104.106575,157.997375 99.325562,162.005402 
	C94.653801,165.921860 92.730713,170.872925 90.679825,176.597900 
	C89.910019,176.990829 89.453384,176.993912 88.774124,176.695007 
	C88.616096,174.622284 88.564331,172.838211 88.765503,171.083145 
	C89.629936,163.541534 83.123955,160.222046 79.419853,155.467453 
	C78.303200,154.034134 74.475853,154.712616 71.358253,154.364288 
	C71.319550,154.130280 71.136841,153.025833 70.954140,151.921387 
	C77.893127,140.090958 87.667923,131.135574 99.609024,124.293045 
	C99.974556,125.041100 99.980713,125.508255 99.986877,125.975403 
z"/>
<path fill="#AFB3BA" opacity="1.000000" stroke="none" 
	d="
M329.351746,135.614548 
	C330.930817,128.280441 338.567200,127.162323 346.937164,133.684341 
	C347.120453,131.940353 347.734009,130.439545 347.326111,129.306427 
	C343.637360,119.059723 344.232941,117.158745 352.955353,112.000885 
	C346.758911,112.000885 340.554962,112.169708 334.370605,111.895866 
	C332.563873,111.815872 330.812897,110.475090 328.966125,109.312714 
	C328.895905,108.913239 328.944214,108.960159 329.106934,108.858826 
	C329.527954,108.631561 329.759949,108.468239 329.965607,108.267517 
	C338.718994,108.846840 347.472382,109.426163 356.845093,110.260040 
	C358.303650,110.403244 359.142914,110.291893 359.982178,110.180542 
	C360.150818,110.138000 360.319458,110.095459 360.821167,110.451782 
	C363.427216,112.744606 365.700226,114.638550 368.529236,116.995781 
	C367.613342,119.374046 366.441925,122.442230 365.250610,125.502678 
	C363.685364,129.523865 362.800507,133.313095 366.485138,136.951324 
	C367.386261,137.841095 366.863190,140.173233 366.994904,141.842224 
	C365.054077,140.788345 363.206146,139.473938 361.150787,138.741379 
	C358.030792,137.629349 355.286469,135.883667 351.536438,135.930359 
	C345.756561,136.002335 339.970703,134.586304 334.162445,134.098175 
	C332.729980,133.977783 331.201294,135.001816 329.351746,135.614548 
M331.469330,109.503189 
	C331.469330,109.503189 331.512085,109.488853 331.469330,109.503189 
z"/>
<path fill="#838A94" opacity="1.000000" stroke="none" 
	d="
M361.388489,248.892700 
	C361.651581,246.666382 362.722015,244.550034 362.920746,242.354767 
	C363.443878,236.576080 364.194672,235.748062 369.848175,236.045837 
	C371.317535,236.123215 372.794159,236.063141 375.059540,236.022003 
	C378.123566,236.073227 380.443176,236.499725 382.655487,236.181137 
	C385.486542,235.773468 388.231140,234.765427 391.013000,234.016113 
	C395.031219,234.006943 399.049408,233.997772 403.771790,234.220734 
	C406.395844,238.662598 409.384186,239.442810 413.375397,237.314682 
	C414.540985,236.693207 415.806519,236.210815 417.077881,235.843582 
	C428.280029,232.607864 426.903076,234.788025 427.002441,222.003159 
	C427.005371,219.302628 427.008270,216.602112 427.007416,213.451706 
	C427.012543,206.129929 426.949829,199.256653 427.081299,192.387100 
	C427.113678,190.696030 427.778900,189.017090 428.493652,187.155502 
	C429.209595,204.005890 429.585114,221.033340 429.520996,238.578171 
	C428.388336,240.575195 427.098724,242.064590 427.122742,243.532516 
	C427.177643,246.891373 425.926514,248.743378 422.728851,249.742340 
	C420.536224,250.427338 418.525696,251.690536 416.425873,252.678482 
	C412.499542,254.525848 408.633728,255.262329 405.008362,251.534882 
	C404.995728,248.647873 405.289124,246.163574 404.863800,243.809143 
	C404.612213,242.416519 403.224457,241.229172 402.347595,239.949509 
	C401.406708,239.287506 400.473083,238.062134 399.523773,238.049866 
	C388.942474,237.912964 378.358765,237.963516 367.946655,237.963516 
	C364.972382,241.332779 370.728546,249.224411 361.388489,248.892700 
z"/>
<path fill="#024DA0" opacity="1.000000" stroke="none" 
	d="
M72.941605,260.045990 
	C72.625839,258.582947 72.310081,257.119934 71.861786,255.042816 
	C85.737900,255.042816 98.901230,255.042816 112.645020,255.397400 
	C117.106567,256.816071 121.088722,254.308060 124.150558,248.612000 
	C124.537270,246.167526 124.769089,244.079788 125.372414,241.975418 
	C133.279480,240.800812 137.272522,243.052124 139.143204,249.947693 
	C139.992371,253.077789 141.597244,254.457062 144.782135,253.981705 
	C141.743393,258.598236 138.704666,263.214783 135.122955,267.782654 
	C131.387665,268.820251 128.195374,269.906494 125.002029,270.576782 
	C124.200981,267.959778 123.923195,264.322693 122.509705,263.808685 
	C116.685318,261.690643 110.568100,260.248108 104.458115,259.084534 
	C99.161232,258.075836 93.734421,257.371155 88.354683,257.298431 
	C84.247231,257.242889 80.123581,258.385773 75.684776,259.044617 
	C74.555473,259.411102 73.748535,259.728546 72.941605,260.045990 
z"/>
<path fill="#045FB1" opacity="1.000000" stroke="none" 
	d="
M211.107590,126.963264 
	C219.198395,132.406647 227.346054,137.768326 235.349335,143.337463 
	C238.171860,145.301529 237.157135,147.877716 235.055695,149.599152 
	C230.697189,153.169495 226.142471,156.511429 221.549591,159.780334 
	C218.878036,161.681747 216.574692,162.158585 213.433319,159.421158 
	C208.746277,155.336868 203.164505,152.279327 198.316330,148.417175 
	C201.186935,148.851746 203.704620,149.654099 207.250320,150.784073 
	C202.656372,139.778244 209.460342,136.846252 218.759384,134.938690 
	C215.319946,132.319763 212.882507,130.502213 210.507996,128.605865 
	C210.219772,128.375671 210.212952,127.721451 210.210007,127.262878 
	C210.209366,127.164932 210.793076,127.063232 211.107590,126.963264 
z"/>
<path fill="#0393D0" opacity="1.000000" stroke="none" 
	d="
M192.002090,257.006927 
	C192.941193,256.804413 194.084030,256.874786 194.784180,256.352142 
	C197.841873,254.069611 200.629898,254.239838 203.513657,257.245728 
	C202.800598,260.464844 201.910233,263.295502 201.019882,266.126129 
	C201.019882,266.126129 200.965683,266.426636 200.465790,266.426086 
	C197.643631,267.582153 195.333984,269.705200 192.996964,269.735718 
	C179.598480,269.910889 166.172623,269.982208 152.799438,269.272003 
	C146.017624,268.911804 145.581802,266.692749 150.383392,260.923309 
	C153.452850,260.224792 156.135437,259.151306 158.842499,259.085541 
	C167.966965,258.863892 177.102631,259.113159 186.227936,258.909546 
	C188.165833,258.866302 190.078049,257.671295 192.002090,257.006927 
z"/>
<path fill="#8C929C" opacity="1.000000" stroke="none" 
	d="
M298.107086,245.353058 
	C298.967072,244.808319 299.897827,244.832718 300.529541,244.410110 
	C302.528748,243.072678 304.819153,240.029572 306.272858,240.410370 
	C311.051056,241.661972 315.544617,244.057953 320.073669,246.172501 
	C321.742004,246.951447 322.964691,250.945892 325.017273,246.222961 
	C326.574310,247.422562 328.622192,248.701843 329.525391,250.542725 
	C331.516205,254.600479 334.580231,255.237686 338.661041,255.079376 
	C345.784088,254.803024 352.926758,255.031845 360.525330,255.113037 
	C362.262634,258.525940 360.629944,259.809692 357.530548,259.945648 
	C349.085724,260.316162 340.637909,260.915436 332.194183,260.870544 
	C328.648773,260.851715 325.110626,259.438965 321.569427,258.658844 
	C320.759613,258.480438 319.723297,257.881531 319.176392,258.180573 
	C313.097504,261.504364 309.247101,256.774628 304.466370,254.181061 
	C302.126343,251.254883 300.083679,248.486252 298.107086,245.353058 
z"/>
<path fill="#035CAF" opacity="1.000000" stroke="none" 
	d="
M88.996758,176.997009 
	C89.453384,176.993912 89.910019,176.990829 90.709213,176.990570 
	C89.686066,182.059799 88.320351,187.126190 86.506516,192.648346 
	C85.372559,194.591034 84.176147,196.050797 84.095398,197.569885 
	C83.840340,202.367584 84.003136,207.187469 84.002251,211.999390 
	C84.000229,212.000000 83.998779,212.004272 83.643311,211.850632 
	C82.858490,209.700043 82.653633,207.619553 81.948799,205.725098 
	C80.804169,202.648605 79.801888,199.339401 77.872543,196.782669 
	C75.735870,193.951202 72.444313,192.023804 69.986214,189.393784 
	C67.183197,186.394684 64.250412,184.476654 60.014416,185.615112 
	C60.009060,184.495056 60.007187,183.748138 60.355686,182.854126 
	C61.456100,178.107101 62.206139,173.507202 62.956177,168.907288 
	C64.472847,164.764832 65.989510,160.622391 67.967667,156.515076 
	C68.402489,157.834015 68.718132,159.250137 68.282898,160.376007 
	C67.126961,163.366211 66.767143,165.739899 70.603943,167.013260 
	C71.565598,167.332428 72.213394,168.623276 72.984497,169.486282 
	C77.021057,174.003860 81.050888,178.527466 85.801994,183.855179 
	C87.132294,180.999420 88.064529,178.998215 88.996758,176.997009 
M83.434456,187.944794 
	C83.811661,187.944946 84.188866,187.945099 84.566071,187.945251 
	C84.455276,187.546310 84.344482,187.147369 84.233696,186.748428 
	C83.930099,186.998062 83.626503,187.247696 83.434456,187.944794 
z"/>
<path fill="#0370C2" opacity="1.000000" stroke="none" 
	d="
M165.998779,133.993744 
	C161.461121,128.837662 161.199692,128.523285 167.048172,123.659782 
	C170.830215,120.514679 175.514404,118.454407 179.189102,116.268089 
	C175.760422,114.661041 171.587448,112.705132 167.224762,110.464920 
	C178.150131,111.867867 188.719543,115.267097 198.663086,120.845291 
	C194.952881,124.590683 191.002457,127.483475 187.859695,131.081696 
	C185.512985,133.768509 185.327484,137.029785 189.309280,139.282700 
	C190.768799,140.108490 191.777176,141.731613 192.620300,142.972305 
	C190.646271,142.172165 189.117050,141.091583 187.424316,140.674347 
	C184.321564,139.909561 181.722061,136.378906 177.998245,138.815765 
	C177.553711,138.855530 177.109192,138.895294 176.327911,138.514740 
	C175.528061,137.187195 175.064972,136.279968 174.601868,135.372742 
	C173.398514,136.179825 172.195175,136.986908 170.991837,137.793991 
	C170.991837,137.793991 170.507599,137.873550 170.507599,137.873550 
	C170.507599,137.873550 170.121719,137.570374 170.009201,136.972168 
	C168.597382,135.580566 167.298080,134.787155 165.998779,133.993744 
z"/>
<path fill="#AFB3BA" opacity="1.000000" stroke="none" 
	d="
M341.186096,207.995331 
	C341.133118,198.355484 341.072815,188.715652 341.030670,179.075760 
	C341.013275,175.096100 342.174744,173.213257 346.964874,173.753677 
	C351.905426,174.311050 357.019073,173.334061 362.529724,173.547134 
	C363.003662,179.378281 363.004883,184.690659 362.642883,190.021698 
	C361.004791,190.969543 359.730408,191.899414 358.454956,192.827835 
	C356.604309,194.174927 354.934875,196.113007 352.865448,196.749176 
	C347.960297,198.257034 345.739471,201.219254 345.954102,206.273056 
	C345.998199,207.310944 345.515228,208.371216 345.243988,209.557556 
	C343.633545,208.937561 342.409821,208.466446 341.186096,207.995331 
z"/>
<path fill="#A0A5AD" opacity="1.000000" stroke="none" 
	d="
M333.006409,222.661774 
	C330.652039,224.021667 328.471222,225.055664 325.603149,226.415543 
	C321.171661,219.413101 314.320496,221.036880 307.400482,222.849701 
	C298.410278,225.204834 289.759644,221.978668 280.570038,221.070282 
	C281.835541,219.986710 283.419983,218.321320 285.166779,218.128769 
	C289.109314,217.694199 293.149902,217.744934 297.118469,218.036148 
	C305.107422,218.622391 311.007111,215.811600 314.670044,208.158936 
	C317.264771,207.699371 319.544800,207.339798 321.838287,207.120911 
	C327.362610,206.593643 332.759064,206.684006 337.496826,210.911362 
	C336.282715,214.771332 334.731354,218.553604 333.006409,222.661774 
z"/>
<path fill="#A0A5AD" opacity="1.000000" stroke="none" 
	d="
M393.693573,163.897476 
	C390.134460,160.182312 386.610657,156.432220 382.995300,152.772629 
	C381.868988,151.632568 380.494934,150.737228 379.242249,149.072449 
	C379.351501,147.131531 380.048737,145.352890 379.459229,144.643341 
	C374.980408,139.252655 378.373444,134.245361 379.959869,129.183624 
	C380.964294,125.978783 383.241852,124.478798 386.718933,124.375771 
	C387.829956,124.342850 388.900574,122.946594 389.989685,122.174118 
	C394.599518,125.550758 399.209351,128.927414 403.677307,132.713882 
	C402.309998,134.549026 402.308258,137.568985 398.972687,136.312485 
	C398.448914,136.115189 396.997559,137.707535 396.328979,138.708710 
	C394.970764,140.742691 393.335144,142.809387 392.767242,145.099106 
	C392.024841,148.092255 391.897736,151.332062 392.075073,154.433212 
	C392.256683,157.608444 393.125549,160.744354 393.693573,163.897476 
z"/>
<path fill="#02479A" opacity="1.000000" stroke="none" 
	d="
M59.003296,225.999985 
	C58.668098,224.921738 58.332901,223.843491 58.324181,222.386337 
	C59.093380,222.003464 59.536095,221.999496 60.345730,221.979630 
	C69.579025,223.525497 78.697685,224.306305 86.374725,230.673828 
	C86.998711,228.951324 87.491875,227.589935 87.985046,226.228546 
	C89.294998,230.565735 90.604935,234.902908 91.534409,239.772339 
	C89.670799,244.191315 86.924423,245.423630 82.785812,245.091583 
	C77.890915,244.698822 72.940582,244.997101 67.943672,244.636459 
	C65.906448,238.413132 63.805038,232.589447 62.035107,226.666702 
	C61.253761,224.052094 60.517345,223.956879 59.003296,225.999985 
z"/>
<path fill="#0369BC" opacity="1.000000" stroke="none" 
	d="
M192.991364,142.991013 
	C191.777176,141.731613 190.768799,140.108490 189.309280,139.282700 
	C185.327484,137.029785 185.512985,133.768509 187.859695,131.081696 
	C191.002457,127.483475 194.952881,124.590683 198.823807,121.174568 
	C202.998230,122.745903 206.905380,124.537674 210.960052,126.646347 
	C210.793076,127.063232 210.209366,127.164932 210.210007,127.262878 
	C210.212952,127.721451 210.219772,128.375671 210.507996,128.605865 
	C212.882507,130.502213 215.319946,132.319763 218.759384,134.938690 
	C209.460342,136.846252 202.656372,139.778244 207.250320,150.784073 
	C203.704620,149.654099 201.186935,148.851746 198.272354,148.056213 
	C196.272919,147.292587 194.670395,146.522141 193.061554,145.343445 
	C193.055252,144.935196 193.159592,144.817825 193.398712,144.786636 
	C193.428268,144.173584 193.218689,143.591705 193.005112,143.005569 
	C193.001129,143.001297 192.991364,142.991013 192.991364,142.991013 
z"/>
<path fill="#0E95CE" opacity="1.000000" stroke="none" 
	d="
M264.890259,213.602966 
	C262.540619,208.502914 259.822388,203.125168 258.069580,197.449280 
	C254.991119,187.480820 252.503647,177.329865 248.755981,167.234375 
	C242.881927,180.752594 240.231537,194.949158 236.302582,208.771530 
	C232.311966,222.810867 227.695648,236.672348 222.109055,250.890427 
	C221.424301,249.476089 220.739548,248.061768 220.044678,246.271393 
	C221.677429,242.489761 223.774841,239.224930 224.880920,235.653107 
	C228.745697,223.172653 232.434174,210.631348 235.862991,198.024323 
	C238.206818,189.406616 239.830627,180.594269 242.120438,171.960190 
	C243.379349,167.213226 245.350403,162.655136 247.000366,158.011887 
	C247.577194,157.949982 248.154007,157.888077 248.730820,157.826187 
	C250.127487,160.758499 251.885605,163.578140 252.842331,166.647583 
	C254.603027,172.296295 255.855530,178.101807 257.387604,183.823807 
	C259.314545,191.020493 261.345825,198.189331 263.255707,205.390427 
	C263.937286,207.960220 264.395935,210.589096 264.890259,213.602966 
z"/>
<path fill="#999EA6" opacity="1.000000" stroke="none" 
	d="
M393.848572,164.176819 
	C393.125549,160.744354 392.256683,157.608444 392.075073,154.433212 
	C391.897736,151.332062 392.024841,148.092255 392.767242,145.099106 
	C393.335144,142.809387 394.970764,140.742691 396.328979,138.708710 
	C396.997559,137.707535 398.448914,136.115189 398.972687,136.312485 
	C402.308258,137.568985 402.309998,134.549026 403.824402,133.043793 
	C408.075378,137.387619 412.037354,141.811356 415.614288,146.608414 
	C407.877747,147.048676 405.900635,148.202774 405.210083,153.690018 
	C404.830261,156.708298 404.316803,160.320297 405.595642,162.754791 
	C406.737457,164.928452 410.259033,165.852036 413.954865,168.058044 
	C407.587250,168.058044 402.233521,168.058044 396.879791,168.058044 
	C395.921051,166.857407 394.962311,165.656784 393.848572,164.176819 
z"/>
<path fill="#A8ADB5" opacity="1.000000" stroke="none" 
	d="
M389.662262,122.018425 
	C388.900574,122.946594 387.829956,124.342850 386.718933,124.375771 
	C383.241852,124.478798 380.964294,125.978783 379.959869,129.183624 
	C378.373444,134.245361 374.980408,139.252655 379.459229,144.643341 
	C380.048737,145.352890 379.351501,147.131531 379.104431,148.756027 
	C375.216827,146.729889 371.474945,144.362762 367.364014,141.918945 
	C366.863190,140.173233 367.386261,137.841095 366.485138,136.951324 
	C362.800507,133.313095 363.685364,129.523865 365.250610,125.502678 
	C366.441925,122.442230 367.613342,119.374046 368.529236,116.995781 
	C365.700226,114.638550 363.427216,112.744606 361.074097,110.515663 
	C370.440948,114.074684 379.887878,117.968697 389.662262,122.018425 
z"/>
<path fill="#0255A8" opacity="1.000000" stroke="none" 
	d="
M60.017899,185.988251 
	C64.250412,184.476654 67.183197,186.394684 69.986214,189.393784 
	C72.444313,192.023804 75.735870,193.951202 77.872543,196.782669 
	C79.801888,199.339401 80.804169,202.648605 81.948799,205.725098 
	C82.653633,207.619553 82.858490,209.700043 83.640198,212.203339 
	C83.914558,214.593338 83.711823,216.102203 81.137947,214.805176 
	C74.933075,211.678436 68.665810,208.675507 62.042454,205.436172 
	C61.011738,205.553864 59.092667,205.772964 57.173595,205.992081 
	C57.140186,201.287445 57.106777,196.582809 57.362198,191.180328 
	C58.439983,188.984406 59.228943,187.486328 60.017899,185.988251 
z"/>
<path fill="#7C818D" opacity="1.000000" stroke="none" 
	d="
M405.012207,251.992188 
	C408.633728,255.262329 412.499542,254.525848 416.425873,252.678482 
	C418.525696,251.690536 420.536224,250.427338 422.728851,249.742340 
	C425.926514,248.743378 427.177643,246.891373 427.122742,243.532516 
	C427.098724,242.064590 428.388336,240.575195 429.458130,239.042419 
	C429.542908,246.004272 429.986237,253.162247 428.661346,259.976410 
	C427.955780,263.605408 424.191284,266.639618 421.054993,269.985199 
	C417.873749,270.955444 415.445007,271.882751 413.016266,272.810059 
	C411.949738,272.847931 410.883209,272.885803 409.385437,272.507568 
	C404.937439,268.142822 404.575775,263.187408 404.976807,257.975800 
	C405.129425,255.992096 405.008484,253.987350 405.012207,251.992188 
z"/>
<path fill="#8C929C" opacity="1.000000" stroke="none" 
	d="
M396.953552,168.457977 
	C402.233521,168.058044 407.587250,168.058044 413.954865,168.058044 
	C410.259033,165.852036 406.737457,164.928452 405.595642,162.754791 
	C404.316803,160.320297 404.830261,156.708298 405.210083,153.690018 
	C405.900635,148.202774 407.877747,147.048676 415.671387,146.974396 
	C422.179565,153.673859 426.804474,161.020828 427.160217,171.000519 
	C417.691589,171.000519 408.797363,171.066406 399.907227,170.906509 
	C398.935303,170.889023 397.986694,169.572113 396.953552,168.457977 
z"/>
<path fill="#0255A8" opacity="1.000000" stroke="none" 
	d="
M154.121964,217.457672 
	C154.593933,216.993195 154.996017,216.992935 155.699371,217.456253 
	C156.000641,221.615662 156.000641,225.311478 156.000641,229.007309 
	C160.007050,222.454880 160.087677,222.258759 167.136780,225.156586 
	C169.373886,226.076233 171.055817,228.346375 172.991806,229.998505 
	C172.725098,234.580078 174.045532,240.449051 171.698166,243.342911 
	C169.760117,245.732178 163.482300,244.587296 159.131638,245.047333 
	C158.407806,245.123886 157.705032,245.399353 156.992538,245.582901 
	C156.990768,246.025940 156.989014,246.468964 156.987244,246.912003 
	C162.079056,247.420120 167.170868,247.928253 172.611694,248.638550 
	C168.012436,248.889236 163.057434,248.797638 158.118256,249.035049 
	C154.773697,249.195816 153.909714,247.774063 153.967773,244.654663 
	C154.133621,235.746292 154.042267,226.833145 154.121964,217.457672 
z"/>
<path fill="#024DA0" opacity="1.000000" stroke="none" 
	d="
M57.108528,206.437347 
	C59.092667,205.772964 61.011738,205.553864 62.042454,205.436172 
	C68.665810,208.675507 74.933075,211.678436 81.137947,214.805176 
	C83.711823,216.102203 83.914558,214.593338 83.995667,212.356979 
	C83.998779,212.004272 84.000229,212.000000 84.306870,211.999191 
	C85.019768,211.996338 85.426033,211.994308 85.832298,211.992264 
	C86.347382,216.563309 86.862465,221.134338 87.681297,225.966965 
	C87.491875,227.589935 86.998711,228.951324 86.374725,230.673828 
	C78.697685,224.306305 69.579025,223.525497 60.350166,221.560150 
	C59.556808,218.865936 61.362267,215.566406 57.193184,214.962219 
	C57.143276,212.269012 57.093369,209.575821 57.108528,206.437347 
z"/>
<path fill="#0255A8" opacity="1.000000" stroke="none" 
	d="
M144.751740,253.661575 
	C141.597244,254.457062 139.992371,253.077789 139.143204,249.947693 
	C137.272522,243.052124 133.279480,240.800812 125.369530,241.507935 
	C124.999420,234.704514 125.003693,228.351959 125.433525,221.999573 
	C131.238571,223.667389 136.618057,225.335037 141.998077,227.471069 
	C142.002991,233.203033 141.807800,238.479263 142.139755,243.722107 
	C142.232986,245.194580 143.875473,246.568970 144.807312,247.988358 
	C143.937836,249.759216 141.991791,251.512802 144.751740,253.661575 
z"/>
<path fill="#0261B5" opacity="1.000000" stroke="none" 
	d="
M88.774124,176.695007 
	C88.064529,178.998215 87.132294,180.999420 85.801994,183.855179 
	C81.050888,178.527466 77.021057,174.003860 72.984497,169.486282 
	C72.213394,168.623276 71.565598,167.332428 70.603943,167.013260 
	C66.767143,165.739899 67.126961,163.366211 68.282898,160.376007 
	C68.718132,159.250137 68.402489,157.834015 68.213486,156.261841 
	C68.785248,154.712524 69.572678,153.451584 70.657120,152.056015 
	C71.136841,153.025833 71.319550,154.130280 71.358253,154.364288 
	C74.475853,154.712616 78.303200,154.034134 79.419853,155.467453 
	C83.123955,160.222046 89.629936,163.541534 88.765503,171.083145 
	C88.564331,172.838211 88.616096,174.622284 88.774124,176.695007 
z"/>
<path fill="#AFB3BA" opacity="1.000000" stroke="none" 
	d="
M257.587677,140.991394 
	C257.742798,143.341324 257.533081,145.695068 257.323334,148.048813 
	C260.528961,142.551437 265.489319,143.076218 270.507355,142.886169 
	C275.387207,142.701340 276.702148,146.834671 279.305786,149.221664 
	C281.560272,151.288574 283.480408,152.266190 286.673676,151.078903 
	C283.012115,154.131256 279.197906,157.581818 274.863831,160.157791 
	C273.117279,161.195862 269.652161,161.220398 267.975281,160.141861 
	C263.147400,157.036713 258.703796,153.281372 254.363190,149.490707 
	C251.661880,147.131668 252.772873,144.235336 257.587677,140.991394 
z"/>
<path fill="#0370C2" opacity="1.000000" stroke="none" 
	d="
M122.228783,207.966736 
	C122.228783,196.529846 122.228783,185.092941 122.228783,173.030182 
	C129.304810,173.030182 136.085968,172.818619 142.828156,173.236084 
	C143.966919,173.306595 145.795212,176.061310 145.844315,177.621811 
	C146.121521,186.432785 145.953110,195.257767 145.778564,204.650162 
	C145.498535,205.517136 145.557053,205.774445 145.796143,205.994232 
	C145.842468,207.055634 145.888809,208.117020 145.495087,209.577759 
	C144.038712,209.982651 143.022415,209.988190 142.004318,209.996063 
	C142.002533,209.998398 142.008392,209.989014 142.010040,209.523376 
	C142.003296,204.042511 141.994919,199.027298 141.989929,193.543365 
	C141.986084,188.932434 142.173828,184.775055 141.853348,180.657227 
	C141.756683,179.415329 140.451675,177.507263 139.356064,177.220932 
	C128.446671,174.369614 124.999474,177.050781 125.000870,188.031403 
	C125.001045,189.356934 125.007935,190.682449 125.008942,192.473267 
	C125.002838,197.623199 124.999489,202.307861 124.993439,207.238022 
	C124.990738,207.483536 124.991150,207.974594 124.645851,207.973877 
	C123.609962,207.971024 122.919373,207.968872 122.228783,207.966736 
z"/>
<path fill="#A8ADB5" opacity="1.000000" stroke="none" 
	d="
M341.136017,208.456665 
	C342.409821,208.466446 343.633545,208.937561 345.243988,209.557556 
	C345.515228,208.371216 345.998199,207.310944 345.954102,206.273056 
	C345.739471,201.219254 347.960297,198.257034 352.865448,196.749176 
	C354.934875,196.113007 356.604309,194.174927 358.454956,192.827835 
	C359.730408,191.899414 361.004791,190.969543 362.647308,190.488174 
	C363.007935,195.955353 363.000916,200.974686 362.615479,206.016205 
	C359.918793,206.922714 357.629242,207.893188 355.277252,208.676163 
	C345.991638,211.767303 345.984375,211.745499 346.010376,221.007370 
	C346.010376,221.007370 346.008118,221.506424 345.657349,221.693268 
	C343.927063,221.583893 342.547516,221.287674 341.167969,220.991455 
	C341.140625,216.966965 341.113281,212.942490 341.136017,208.456665 
z"/>
<path fill="#0B8DC7" opacity="1.000000" stroke="none" 
	d="
M150.007736,261.010132 
	C145.581802,266.692749 146.017624,268.911804 152.799438,269.272003 
	C166.172623,269.982208 179.598480,269.910889 192.996964,269.735718 
	C195.333984,269.705200 197.643631,267.582153 200.346970,266.521973 
	C199.158127,270.889465 196.806335,273.267639 191.544281,273.144836 
	C175.286148,272.765411 159.013550,273.006287 142.790405,273.006287 
	C140.255508,267.439911 145.519287,265.049377 146.802582,261.245514 
	C147.141068,260.242157 147.841553,259.360931 148.740906,258.542358 
	C149.406601,259.444122 149.707169,260.227142 150.007736,261.010132 
z"/>
<path fill="#0B8DC7" opacity="1.000000" stroke="none" 
	d="
M209.940384,256.446472 
	C211.413101,257.584167 212.925415,259.104431 214.862549,261.130676 
	C217.453720,264.733429 219.248657,268.226562 221.947235,270.755371 
	C223.244781,271.971252 226.343887,271.818481 228.433701,271.374603 
	C229.325409,271.185211 229.737946,268.673462 230.338669,267.204926 
	C230.705658,266.307770 231.091415,265.407532 231.339157,264.474304 
	C232.260559,261.003143 233.128296,257.517761 234.016174,254.037750 
	C234.723877,254.023621 235.431610,254.009476 236.493073,253.983185 
	C235.378738,259.918091 233.939178,265.872437 232.430466,271.809174 
	C231.681168,274.757660 230.954407,277.728180 229.919159,280.580444 
	C229.444839,281.887207 228.318451,283.810699 227.367065,283.883850 
	C226.055771,283.984589 224.043289,282.948547 223.352448,281.790344 
	C219.865631,275.944763 216.680237,269.917603 213.453781,263.919342 
	C212.207947,261.603180 211.132858,259.195221 209.940384,256.446472 
z"/>
<path fill="#024190" opacity="1.000000" stroke="none" 
	d="
M73.091812,260.359833 
	C73.748535,259.728546 74.555473,259.411102 75.745316,259.394592 
	C79.866020,268.476746 85.258827,274.340607 96.065109,273.140778 
	C102.780777,272.395111 109.654663,273.194794 116.441055,272.909180 
	C119.316856,272.788147 122.150352,271.662048 125.003082,270.992737 
	C128.195374,269.906494 131.387665,268.820251 134.816040,267.938782 
	C129.801193,273.701355 123.271133,276.058716 115.716621,276.015839 
	C106.088295,275.961151 96.452934,276.189148 86.835861,275.855591 
	C84.731544,275.782593 82.050896,274.351624 80.752686,272.679047 
	C77.873161,268.969055 75.702019,264.709290 73.091812,260.359833 
z"/>
<path fill="#0E95CE" opacity="1.000000" stroke="none" 
	d="
M256.662537,226.879303 
	C258.109375,232.471741 259.326935,237.911682 260.259369,243.400070 
	C260.494873,244.786301 259.819580,246.327271 259.218262,247.923386 
	C258.281219,247.508728 257.322510,247.062836 257.153687,246.412033 
	C255.682953,240.741928 254.411880,235.020294 252.965027,229.343628 
	C251.688309,224.334457 250.262360,219.363281 248.707001,213.658997 
	C247.514771,216.449066 246.598923,218.592392 245.363159,220.909073 
	C241.853165,215.119263 247.050552,210.943573 247.549561,205.766586 
	C248.220276,205.670929 248.891006,205.575287 249.561737,205.479630 
	C250.871368,209.673615 252.167038,213.872040 253.495468,218.060059 
	C254.416077,220.962387 255.381866,223.850357 256.662537,226.879303 
z"/>
<path fill="#0B8DC7" opacity="1.000000" stroke="none" 
	d="
M264.994568,269.471008 
	C267.596344,269.367950 270.220520,269.899048 272.852203,269.939178 
	C280.642120,270.058075 288.435425,270.035034 296.226532,269.965332 
	C301.249512,269.920380 301.816040,268.911438 299.320984,264.424896 
	C298.295074,262.580139 296.906219,260.937256 295.339233,258.769287 
	C294.354065,257.289307 293.712097,256.242615 293.070099,255.195908 
	C295.000061,256.165924 297.473145,256.682678 298.742676,258.203857 
	C301.106842,261.036621 302.809998,264.430573 304.714447,267.634827 
	C306.642853,270.879395 305.550140,272.957977 301.789246,272.978241 
	C290.850891,273.037140 279.909454,273.091705 268.976318,272.840912 
	C267.635742,272.810181 266.337982,270.912994 264.994568,269.471008 
z"/>
<path fill="#0E95CE" opacity="1.000000" stroke="none" 
	d="
M150.383392,260.923309 
	C149.707169,260.227142 149.406601,259.444122 149.041473,258.353821 
	C148.976898,258.046539 148.970673,257.969208 149.191864,257.848053 
	C149.643143,257.545410 149.822830,257.323120 149.952103,257.060089 
	C149.952103,257.060089 149.968933,256.941437 150.213440,256.836426 
	C150.688828,256.548340 150.874084,256.327087 151.013702,256.067627 
	C152.702332,255.716202 154.388046,255.077896 156.080078,255.060715 
	C165.844070,254.961502 175.609741,255.039154 185.374329,254.976654 
	C186.962906,254.966476 188.548920,254.556061 190.510345,254.141266 
	C191.246078,254.744507 191.607590,255.537140 191.985596,256.668335 
	C190.078049,257.671295 188.165833,258.866302 186.227936,258.909546 
	C177.102631,259.113159 167.966965,258.863892 158.842499,259.085541 
	C156.135437,259.151306 153.452850,260.224792 150.383392,260.923309 
z"/>
<path fill="#838A94" opacity="1.000000" stroke="none" 
	d="
M405.032257,207.987411 
	C404.842438,211.104767 404.652618,214.222107 403.843903,217.666473 
	C402.452118,217.981491 401.679230,217.969498 400.906342,217.957520 
	C400.952393,206.332291 400.823273,194.701523 401.189331,183.086380 
	C401.264343,180.707367 403.194611,178.386810 404.649353,176.109100 
	C405.028168,177.202362 405.027252,178.225830 405.012390,180.099472 
	C405.009674,189.962234 405.020966,198.974823 405.032257,207.987411 
z"/>
<path fill="#0B63AF" opacity="1.000000" stroke="none" 
	d="
M142.006104,209.993729 
	C143.022415,209.988190 144.038712,209.982651 145.436096,209.972687 
	C145.871399,220.601074 145.973648,231.234055 145.932388,241.866486 
	C145.925568,243.626862 145.291473,245.384781 144.877289,247.566101 
	C143.875473,246.568970 142.232986,245.194580 142.139755,243.722107 
	C141.807800,238.479263 142.002991,233.203033 141.999542,227.003159 
	C142.002350,220.709152 142.004227,215.351440 142.006104,209.993729 
z"/>
<path fill="#0E95CE" opacity="1.000000" stroke="none" 
	d="
M277.062927,255.526794 
	C275.500336,253.955643 273.119080,252.210785 272.424561,249.948166 
	C269.983124,241.994598 268.121429,233.863052 266.010986,225.400452 
	C265.651703,221.876740 265.321198,218.751633 265.017639,215.250977 
	C266.340668,217.741638 268.037720,220.497787 268.860413,223.494019 
	C271.742310,233.989868 274.322845,244.568466 277.062927,255.526794 
z"/>
<path fill="#AFB3BA" opacity="1.000000" stroke="none" 
	d="
M306.531372,173.092453 
	C306.426788,177.575500 303.999817,178.812515 299.676910,178.222855 
	C294.171997,177.471985 288.551025,177.579849 283.040649,176.856201 
	C281.494232,176.653137 280.160706,174.829010 278.856079,173.458069 
	C288.011383,173.116211 297.040192,173.064743 306.531372,173.092453 
z"/>
<path fill="#707581" opacity="1.000000" stroke="none" 
	d="
M405.008362,251.534882 
	C405.008484,253.987350 405.129425,255.992096 404.976807,257.975800 
	C404.575775,263.187408 404.937439,268.142822 408.989441,272.444031 
	C402.430084,273.129211 402.206848,272.922119 402.195038,266.441742 
	C402.179504,257.900116 402.165131,249.358475 402.248901,240.383179 
	C403.224457,241.229172 404.612213,242.416519 404.863800,243.809143 
	C405.289124,246.163574 404.995728,248.647873 405.008362,251.534882 
z"/>
<path fill="#999EA6" opacity="1.000000" stroke="none" 
	d="
M362.993927,205.994034 
	C363.000916,200.974686 363.007935,195.955353 363.010529,190.469528 
	C363.004883,184.690659 363.003662,179.378281 362.989899,173.608002 
	C367.478821,173.462372 366.318756,177.347687 366.740814,179.779343 
	C367.322784,183.132599 366.962616,186.649384 366.725494,190.906830 
	C366.572174,196.139969 366.699371,200.562408 366.826538,204.984833 
	C366.870392,205.430511 366.914246,205.876175 366.575012,206.715057 
	C365.149200,207.425217 364.106445,207.742172 363.045410,207.714935 
	C363.016022,206.911835 363.004974,206.452942 362.993927,205.994034 
z"/>
<path fill="#0B63AF" opacity="1.000000" stroke="none" 
	d="
M122.147896,208.431610 
	C122.919373,207.968872 123.609962,207.971024 124.649628,208.441406 
	C125.001785,213.272903 125.004875,217.636139 125.007965,221.999390 
	C125.003693,228.351959 124.999420,234.704514 124.998032,241.524567 
	C124.769089,244.079788 124.537270,246.167526 123.815735,248.611710 
	C122.879692,248.975327 122.433372,248.982498 121.987045,248.989670 
	C122.030533,248.238632 122.074013,247.487610 122.345764,246.063904 
	C122.445488,243.596329 122.316933,241.801422 122.188377,240.006500 
	C122.147919,229.636490 122.107460,219.266495 122.147896,208.431610 
z"/>
<path fill="#024190" opacity="1.000000" stroke="none" 
	d="
M59.190903,226.342194 
	C60.517345,223.956879 61.253761,224.052094 62.035107,226.666702 
	C63.805038,232.589447 65.906448,238.413132 68.064743,244.978851 
	C71.009644,246.239731 73.741669,246.963760 76.520836,247.321304 
	C81.318726,247.938568 86.145920,248.328156 90.960815,248.813263 
	C85.354698,248.872849 79.748695,248.963608 74.142433,248.984299 
	C66.670876,249.011871 65.280144,248.005814 63.164330,240.759048 
	C61.803024,236.096512 60.633816,231.377899 59.190903,226.342194 
z"/>
<path fill="#024DA0" opacity="1.000000" stroke="none" 
	d="
M91.347412,248.867218 
	C86.145920,248.328156 81.318726,247.938568 76.520836,247.321304 
	C73.741669,246.963760 71.009644,246.239731 68.135345,245.338226 
	C72.940582,244.997101 77.890915,244.698822 82.785812,245.091583 
	C86.924423,245.423630 89.670799,244.191315 91.465347,240.161484 
	C92.718994,241.670105 93.854118,243.244202 94.557854,244.991959 
	C95.588715,247.552155 94.636032,249.019516 91.347412,248.867218 
z"/>
<path fill="#033B8A" opacity="1.000000" stroke="none" 
	d="
M230.902084,374.558990 
	C230.186401,374.863617 228.960159,375.238861 228.496643,374.802979 
	C221.173950,367.917206 213.943771,360.932861 206.720047,353.942566 
	C206.395538,353.628540 206.333145,353.043640 206.098297,352.239502 
	C214.280731,359.346832 222.513550,366.799530 230.902084,374.558990 
z"/>
<path fill="#8C929C" opacity="1.000000" stroke="none" 
	d="
M400.455322,217.974762 
	C401.679230,217.969498 402.452118,217.981491 403.611511,217.996735 
	C402.908356,218.649643 401.827942,219.843704 400.727600,219.862427 
	C392.271820,220.006195 383.811920,219.950089 375.354401,219.855011 
	C374.670837,219.847336 373.995728,219.086502 373.171143,218.311432 
	C382.018494,217.962143 391.011383,217.977081 400.455322,217.974762 
z"/>
<path fill="#0E95CE" opacity="1.000000" stroke="none" 
	d="
M237.015625,243.013916 
	C238.382324,237.000488 239.697433,230.974274 241.181000,224.989807 
	C241.366714,224.240677 242.442322,223.712158 243.473969,223.030182 
	C246.499069,226.860703 242.539978,229.928131 242.452713,233.554230 
	C242.382843,236.457306 240.859787,239.325394 239.559448,242.604950 
	C238.430038,243.005249 237.722839,243.009583 237.015625,243.013916 
z"/>
<path fill="#A0A5AD" opacity="1.000000" stroke="none" 
	d="
M341.091217,221.449249 
	C342.547516,221.287674 343.927063,221.583893 345.655457,221.942795 
	C346.002441,225.365280 346.000519,228.725082 345.999908,232.543060 
	C346.001221,233.001221 346.000000,233.000000 345.643646,233.003006 
	C343.926086,233.321716 342.564850,233.637421 341.203644,233.953125 
	C341.140594,229.937759 341.077515,225.922409 341.091217,221.449249 
z"/>
<path fill="#0E95CE" opacity="1.000000" stroke="none" 
	d="
M292.635132,255.121857 
	C293.712097,256.242615 294.354065,257.289307 295.018555,258.657196 
	C290.460754,258.984863 285.869446,259.171326 281.306641,258.892090 
	C279.871063,258.804291 278.511993,257.466644 277.088257,256.298309 
	C282.105804,255.612976 287.153015,255.330399 292.635132,255.121857 
z"/>
<path fill="#0B8DC7" opacity="1.000000" stroke="none" 
	d="
M201.331879,265.988586 
	C201.910233,263.295502 202.800598,260.464844 203.842163,257.314575 
	C205.058655,255.063507 206.123947,253.132080 207.189240,251.200653 
	C207.654358,251.230255 208.119461,251.259872 208.584564,251.289474 
	C209.041321,252.641708 209.498077,253.993927 209.945572,255.721283 
	C207.673508,258.552399 205.383636,260.984283 203.165421,263.479889 
	C202.549103,264.173279 202.145218,265.055450 201.331879,265.988586 
z"/>
<path fill="#045FB1" opacity="1.000000" stroke="none" 
	d="
M159.639496,109.952431 
	C154.872360,113.478416 149.601334,112.534843 144.153000,110.293907 
	C149.092880,109.864822 154.180862,109.801155 159.639496,109.952431 
z"/>
<path fill="#999EA6" opacity="1.000000" stroke="none" 
	d="
M341.130127,234.215027 
	C342.564850,233.637421 343.926086,233.321716 345.644257,233.003922 
	C346.001221,236.857956 346.001221,240.714081 346.001221,244.570221 
	C345.153076,244.615494 344.304932,244.660767 343.456787,244.706039 
	C343.001373,242.357864 342.545959,240.009689 342.202637,237.149857 
	C341.933685,236.095016 341.552612,235.551849 341.171570,235.008667 
	C341.133270,234.831421 341.094940,234.654175 341.130127,234.215027 
z"/>
<path fill="#0255A8" opacity="1.000000" stroke="none" 
	d="
M85.890137,211.530441 
	C85.426033,211.994308 85.019768,211.996338 84.308884,211.998581 
	C84.003136,207.187469 83.840340,202.367584 84.095398,197.569885 
	C84.176147,196.050797 85.372559,194.591034 86.442474,193.049011 
	C86.533684,199.018814 86.240829,205.043716 85.890137,211.530441 
z"/>
<path fill="#767B86" opacity="1.000000" stroke="none" 
	d="
M342.603638,296.975708 
	C341.128082,303.404114 336.524475,306.898590 329.952850,308.633118 
	C333.795776,304.720978 338.023315,300.870087 342.603638,296.975708 
z"/>
<path fill="#0369BC" opacity="1.000000" stroke="none" 
	d="
M178.313965,139.024811 
	C181.722061,136.378906 184.321564,139.909561 187.424316,140.674347 
	C189.117050,141.091583 190.646271,142.172165 192.620300,142.972305 
	C192.991364,142.991013 193.001129,143.001297 193.016022,143.308640 
	C193.073807,144.016602 193.116699,144.417206 193.159592,144.817825 
	C193.159592,144.817825 193.055252,144.935196 193.003036,144.993835 
	C188.177109,143.112930 183.403381,141.173386 178.313965,139.024811 
z"/>
<path fill="#707581" opacity="1.000000" stroke="none" 
	d="
M286.641815,346.139282 
	C286.030670,347.808777 285.551636,350.126099 284.131775,351.366486 
	C281.607513,353.571716 278.513275,355.124542 275.288208,356.959106 
	C277.762512,354.294769 280.602722,351.618073 283.451385,348.950378 
	C284.406647,348.055817 285.383270,347.184113 286.641815,346.139282 
z"/>
<path fill="#0255A8" opacity="1.000000" stroke="none" 
	d="
M62.568821,168.979263 
	C62.206139,173.507202 61.456100,178.107101 60.056023,182.851639 
	C59.006577,182.993973 58.607166,182.991699 58.207756,182.989426 
	C59.532326,178.343369 60.856895,173.697296 62.568821,168.979263 
z"/>
<path fill="#0261B5" opacity="1.000000" stroke="none" 
	d="
M165.536652,134.000198 
	C167.298080,134.787155 168.597382,135.580566 169.914703,136.745728 
	C165.570419,136.727036 161.208130,136.336594 156.386322,135.885742 
	C155.152740,135.376633 154.378647,134.927887 152.789459,134.006653 
	C157.449112,134.006653 161.261826,134.006653 165.536652,134.000198 
z"/>
<path fill="#8C929C" opacity="1.000000" stroke="none" 
	d="
M363.063721,208.059128 
	C364.106445,207.742172 365.149200,207.425217 366.513489,207.046738 
	C366.875580,209.700012 366.916107,212.414810 366.872742,215.575211 
	C365.787506,216.008972 364.786163,215.997147 363.405518,215.540680 
	C363.038727,212.750397 363.051239,210.404755 363.063721,208.059128 
z"/>
<path fill="#034697" opacity="1.000000" stroke="none" 
	d="
M121.635757,249.047119 
	C122.433372,248.982498 122.879692,248.975327 123.660843,248.968460 
	C121.088722,254.308060 117.106567,256.816071 113.110077,255.455902 
	C115.757942,253.141403 118.521210,251.122986 121.635757,249.047119 
z"/>
<path fill="#0B8DC7" opacity="1.000000" stroke="none" 
	d="
M237.009918,243.410614 
	C237.722839,243.009583 238.430038,243.005249 239.491089,242.997589 
	C238.958969,246.107010 238.073029,249.219757 237.010498,252.670044 
	C236.468109,251.462708 235.795486,249.912308 235.823044,248.374466 
	C235.850433,246.845520 236.581619,245.329178 237.009918,243.410614 
z"/>
<path fill="#033B8A" opacity="1.000000" stroke="none" 
	d="
M128.125412,317.370758 
	C131.565109,316.327637 134.789337,318.854919 136.093262,323.822052 
	C133.359634,321.921967 130.820984,319.794861 128.125412,317.370758 
z"/>
<path fill="#A0A5AD" opacity="1.000000" stroke="none" 
	d="
M272.935974,188.472580 
	C277.295013,187.839828 278.236450,190.648911 278.182373,194.507141 
	C274.661621,194.271118 272.511810,192.686874 272.935974,188.472580 
z"/>
<path fill="#024190" opacity="1.000000" stroke="none" 
	d="
M182.687164,330.683716 
	C178.034912,331.595734 175.616150,328.977173 174.187408,324.489685 
	C176.878387,326.251190 179.719711,328.318909 182.687164,330.683716 
z"/>
<path fill="#033B8A" opacity="1.000000" stroke="none" 
	d="
M57.127327,215.374329 
	C61.362267,215.566406 59.556808,218.865936 59.983253,221.576050 
	C59.536095,221.999496 59.093380,222.003464 58.318665,222.015015 
	C57.678268,219.943893 57.369869,217.865158 57.127327,215.374329 
z"/>
<path fill="#707581" opacity="1.000000" stroke="none" 
	d="
M413.426025,272.884125 
	C415.445007,271.882751 417.873749,270.955444 420.706787,270.038116 
	C419.865753,273.967712 416.549835,272.710571 413.426025,272.884125 
z"/>
<path fill="#024DA0" opacity="1.000000" stroke="none" 
	d="
M58.131859,183.389160 
	C58.607166,182.991699 59.006577,182.993973 59.705650,182.998749 
	C60.007187,183.748138 60.009060,184.495056 60.014420,185.615112 
	C59.228943,187.486328 58.439983,188.984406 57.427094,190.714935 
	C57.487431,188.561218 57.771694,186.175049 58.131859,183.389160 
z"/>
<path fill="#0369BC" opacity="1.000000" stroke="none" 
	d="
M171.360184,137.875275 
	C172.195175,136.986908 173.398514,136.179825 174.601868,135.372742 
	C175.064972,136.279968 175.528061,137.187195 175.998596,138.446686 
	C174.580200,138.518173 173.154358,138.237366 171.360184,137.875275 
z"/>
<path fill="#0370C2" opacity="1.000000" stroke="none" 
	d="
M100.315514,125.891068 
	C99.980713,125.508255 99.974556,125.041100 99.958008,124.223480 
	C101.401337,122.932388 102.855057,121.991776 104.657776,121.115524 
	C103.552567,122.722168 102.098358,124.264450 100.315514,125.891068 
z"/>
<path fill="#8C929C" opacity="1.000000" stroke="none" 
	d="
M366.901978,204.526855 
	C366.699371,200.562408 366.572174,196.139969 366.652313,191.368347 
	C366.898895,195.369080 366.938110,199.718979 366.901978,204.526855 
z"/>
<path fill="#767B86" opacity="1.000000" stroke="none" 
	d="
M329.267883,308.686890 
	C329.517273,311.435089 328.805939,313.606293 325.091980,312.450531 
	C326.318878,311.057098 327.644623,309.932709 329.267883,308.686890 
z"/>
<path fill="#0370C2" opacity="1.000000" stroke="none" 
	d="
M114.629440,116.137985 
	C114.353310,119.262505 112.193909,119.457283 109.339386,118.980377 
	C110.756454,118.009476 112.518959,117.052597 114.629440,116.137985 
z"/>
<path fill="#0369BC" opacity="1.000000" stroke="none" 
	d="
M114.010315,144.982300 
	C114.480774,144.998474 114.951225,145.014648 115.774139,145.047760 
	C115.012115,146.039688 113.897614,147.014664 112.421448,148.025925 
	C112.059776,148.062225 111.961517,147.955505 112.008598,147.611084 
	C112.707222,146.505203 113.358765,145.743744 114.010315,144.982300 
z"/>
<path fill="#034697" opacity="1.000000" stroke="none" 
	d="
M122.111481,240.428986 
	C122.316933,241.801422 122.445488,243.596329 122.391884,245.690430 
	C122.151344,244.276886 122.092964,242.564163 122.111481,240.428986 
z"/>
<path fill="#A0A5AD" opacity="1.000000" stroke="none" 
	d="
M341.103394,235.334839 
	C341.552612,235.551849 341.933685,236.095016 342.156311,236.823486 
	C341.997894,237.008789 341.588684,236.990372 341.383972,236.984192 
	C341.131226,236.539017 341.083191,236.100021 341.103394,235.334839 
z"/>
<path fill="#A0A5AD" opacity="1.000000" stroke="none" 
	d="
M271.941406,185.496063 
	C272.269196,185.941757 272.604218,186.727432 272.928589,187.804871 
	C272.594849,187.343109 272.271729,186.589569 271.941406,185.496063 
z"/>
<path fill="#0370C2" opacity="1.000000" stroke="none" 
	d="
M107.647217,119.158859 
	C107.450874,119.710602 106.932915,120.224770 106.164230,120.856659 
	C106.384201,120.356682 106.854904,119.738976 107.647217,119.158859 
z"/>
<path fill="#A8ADB5" opacity="1.000000" stroke="none" 
	d="
M359.616028,110.113068 
	C359.142914,110.291893 358.303650,110.403244 357.245453,110.345306 
	C357.767639,110.132538 358.508759,110.089066 359.616028,110.113068 
z"/>
<path fill="#0B8DC7" opacity="1.000000" stroke="none" 
	d="
M149.715179,257.100922 
	C149.822830,257.323120 149.643143,257.545410 149.229813,257.840027 
	C149.024414,257.594269 149.168320,257.323822 149.715179,257.100922 
z"/>
<path fill="#0B8DC7" opacity="1.000000" stroke="none" 
	d="
M150.789597,256.130737 
	C150.874084,256.327087 150.688828,256.548340 150.273010,256.842957 
	C150.114517,256.617737 150.273666,256.364166 150.789597,256.130737 
z"/>
<path fill="#0B63AF" opacity="1.000000" stroke="none" 
	d="
M145.858276,205.749207 
	C145.557053,205.774445 145.498535,205.517136 145.718109,205.115936 
	C145.850555,205.174408 145.885468,205.339294 145.858276,205.749207 
z"/>
<path fill="#024190" opacity="1.000000" stroke="none" 
	d="
M138.139648,326.228943 
	C138.289749,326.165466 138.527908,326.337555 138.878876,326.720703 
	C138.712219,326.824097 138.457550,326.668365 138.139648,326.228943 
z"/>
<path fill="#AFB3BA" opacity="1.000000" stroke="none" 
	d="
M258.688965,140.131210 
	C258.791656,140.336441 258.617828,140.560593 258.195953,140.842560 
	C258.054535,140.629959 258.209381,140.379883 258.688965,140.131210 
z"/>
<path fill="#AFB3BA" opacity="1.000000" stroke="none" 
	d="
M259.735107,139.103439 
	C259.820557,139.370926 259.618134,139.565857 259.196289,139.823639 
	C259.165070,139.633972 259.321869,139.348770 259.735107,139.103439 
z"/>
<path fill="#707581" opacity="1.000000" stroke="none" 
	d="
M272.745422,358.141418 
	C272.824738,358.311035 272.656525,358.532776 272.261108,358.828827 
	C272.146698,358.644623 272.301392,358.408081 272.745422,358.141418 
z"/>
<path fill="#707581" opacity="1.000000" stroke="none" 
	d="
M271.698517,359.086853 
	C271.780090,359.312622 271.564026,359.542786 271.090393,359.841980 
	C271.070587,359.683228 271.259949,359.409943 271.698517,359.086853 
z"/>
<path fill="#B6B9C0" opacity="1.000000" stroke="none" 
	d="
M329.716431,108.184296 
	C329.759949,108.468239 329.527954,108.631561 329.075500,108.847183 
	C329.076660,108.658272 329.271942,108.379669 329.716431,108.184296 
z"/>
<path fill="#767B86" opacity="1.000000" stroke="none" 
	d="
M266.999390,367.999390 
	C266.499268,368.867065 265.999756,369.735352 265.500275,370.603638 
	C265.172028,370.358521 264.843781,370.113373 264.515564,369.868256 
	C265.145874,369.283417 265.776184,368.698578 266.703857,368.057465 
	C267.001221,368.001221 267.000000,368.000000 266.999390,367.999390 
z"/>
<path fill="#0393D0" opacity="1.000000" stroke="none" 
	d="
M233.720459,253.852341 
	C233.128296,257.517761 232.260559,261.003143 231.339157,264.474304 
	C231.091415,265.407532 230.705658,266.307770 230.338669,267.204926 
	C229.737946,268.673462 229.325409,271.185211 228.433701,271.374603 
	C226.343887,271.818481 223.244781,271.971252 221.947235,270.755371 
	C219.248657,268.226562 217.453720,264.733429 215.144257,261.319244 
	C214.927155,260.015686 214.915405,259.020172 214.768707,258.044983 
	C214.051544,253.277191 214.554672,253.035843 219.160416,254.226715 
	C220.934998,254.685532 223.721542,254.410767 224.926956,253.278168 
	C228.188995,250.213181 230.714600,250.936661 233.720459,253.852341 
z"/>
<path fill="#0370C2" opacity="1.000000" stroke="none" 
	d="
M114.078995,144.638458 
	C113.358765,145.743744 112.707222,146.505203 111.959526,147.557648 
	C108.598495,149.557449 105.333611,151.266251 101.787155,153.122421 
	C99.008919,146.395447 94.206276,141.024002 85.584290,137.833649 
	C89.448730,134.649612 92.854225,131.843719 96.622009,129.017776 
	C101.523651,128.652908 106.071037,128.389114 110.600128,127.940613 
	C115.186211,127.486450 117.581718,130.697037 119.875641,133.639557 
	C122.043579,136.420471 120.643517,138.855225 118.040062,140.793198 
	C116.646164,141.830780 115.439072,143.119339 114.078995,144.638458 
z"/>
<path fill="#A0A5AD" opacity="1.000000" stroke="none" 
	d="
M405.397003,208.009338 
	C405.020966,198.974823 405.009674,189.962234 405.021545,180.483185 
	C408.551117,179.361649 412.048889,178.245789 415.566376,178.179626 
	C419.164185,178.111908 421.806000,180.011581 422.046783,184.183228 
	C422.226624,187.299377 422.629395,190.405426 423.008331,193.506760 
	C423.921509,200.980255 414.918427,209.881378 405.397003,208.009338 
z"/>
<path fill="#A0A5AD" opacity="1.000000" stroke="none" 
	d="
M363.045410,207.714935 
	C363.051239,210.404755 363.038727,212.750397 363.029968,215.536133 
	C357.622589,217.601425 352.211456,219.226578 346.405334,220.929565 
	C345.984375,211.745499 345.991638,211.767303 355.277252,208.676163 
	C357.629242,207.893188 359.918793,206.922714 362.615479,206.016205 
	C363.004974,206.452942 363.016022,206.911835 363.045410,207.714935 
z"/>
<path fill="#024190" opacity="1.000000" stroke="none" 
	d="
M208.310669,382.753784 
	C208.252365,383.047180 208.085571,383.223633 207.918777,383.400116 
	C207.826080,383.299744 207.733383,383.199371 207.640686,383.098999 
	C207.827850,382.944977 208.014999,382.790924 208.310669,382.753784 
z"/>
<path fill="#8C929C" opacity="1.000000" stroke="none" 
	d="
M426.646973,222.067245 
	C426.903076,234.788025 428.280029,232.607864 417.077881,235.843582 
	C415.806519,236.210815 414.540985,236.693207 413.375397,237.314682 
	C409.384186,239.442810 406.395844,238.662598 404.234375,234.217712 
	C405.042877,232.695679 405.832367,230.841034 407.187622,230.219055 
	C413.469666,227.335938 419.908661,224.794876 426.646973,222.067245 
z"/>
<path fill="#8C929C" opacity="1.000000" stroke="none" 
	d="
M390.545197,234.010620 
	C388.231140,234.765427 385.486542,235.773468 382.655487,236.181137 
	C380.443176,236.499725 378.123566,236.073227 375.416290,235.964722 
	C376.855988,235.301666 378.693726,234.278580 380.614594,234.086365 
	C383.740265,233.773560 386.920288,234.003983 390.545197,234.010620 
z"/>
<path fill="#0261B5" opacity="1.000000" stroke="none" 
	d="
M156.007645,209.986130 
	C156.012878,199.752075 157.616776,189.834503 166.344742,183.337662 
	C170.490753,180.251465 175.936752,177.676773 180.981873,177.283630 
	C192.403824,176.393616 203.942642,177.031601 215.433655,176.983322 
	C219.198959,176.967514 221.069183,178.010971 218.762192,181.967667 
	C218.514832,182.391922 218.341522,182.876602 218.221313,183.355209 
	C216.302032,190.996246 216.305267,190.997330 208.386871,190.998535 
	C204.889542,190.999069 201.364761,191.281601 197.899994,190.945633 
	C186.992279,189.887894 178.183121,192.660522 172.862030,203.672607 
	C169.773483,202.428864 167.473572,202.706070 164.517319,203.160370 
	C159.815842,203.882843 158.450150,207.279831 156.007645,209.986130 
z"/>
<path fill="#035CAF" opacity="1.000000" stroke="none" 
	d="
M156.004639,210.424927 
	C158.450150,207.279831 159.815842,203.882843 164.517319,203.160370 
	C167.473572,202.706070 169.773483,202.428864 172.641266,203.927368 
	C172.996841,212.356705 172.996735,220.709183 172.994217,229.530075 
	C171.055817,228.346375 169.373886,226.076233 167.136780,225.156586 
	C160.087677,222.258759 160.007050,222.454880 156.000641,229.007309 
	C156.000641,225.311478 156.000641,221.615662 156.000931,217.457169 
	C156.001343,214.950912 156.001480,212.907318 156.004639,210.424927 
z"/>
<path fill="#B6B9C0" opacity="1.000000" stroke="none" 
	d="
M331.490723,109.496017 
	C331.512085,109.488853 331.469330,109.503189 331.490723,109.496017 
z"/>
<path fill="#02479A" opacity="1.000000" stroke="none" 
	d="
M125.002037,270.576782 
	C122.150352,271.662048 119.316856,272.788147 116.441055,272.909180 
	C109.654663,273.194794 102.780777,272.395111 96.065109,273.140778 
	C85.258827,274.340607 79.866020,268.476746 76.067673,259.345520 
	C80.123581,258.385773 84.247231,257.242889 88.354683,257.298431 
	C93.734421,257.371155 99.161232,258.075836 104.458115,259.084534 
	C110.568100,260.248108 116.685318,261.690643 122.509705,263.808685 
	C123.923195,264.322693 124.200981,267.959778 125.002037,270.576782 
z"/>
<path fill="#0261B5" opacity="1.000000" stroke="none" 
	d="
M83.378685,187.721069 
	C83.626503,187.247696 83.930099,186.998062 84.233688,186.748428 
	C84.344482,187.147369 84.455276,187.546310 84.566071,187.945251 
	C84.188866,187.945099 83.811661,187.944946 83.378685,187.721069 
z"/>
<path fill="#0370C2" opacity="1.000000" stroke="none" 
	d="
M193.398712,144.786636 
	C193.116699,144.417206 193.073807,144.016602 193.020004,143.312912 
	C193.218689,143.591705 193.428268,144.173584 193.398712,144.786636 
z"/>
<path fill="#035CAF" opacity="1.000000" stroke="none" 
	d="
M125.433525,221.999573 
	C125.004875,217.636139 125.001785,213.272903 124.994919,208.442123 
	C124.991150,207.974594 124.990738,207.483536 125.384094,207.166412 
	C131.897751,204.225616 136.667938,208.581314 142.008392,209.989014 
	C142.008392,209.989014 142.002533,209.998398 142.004318,209.996063 
	C142.004227,215.351440 142.002350,220.709152 141.999023,226.534775 
	C136.618057,225.335037 131.238571,223.667389 125.433525,221.999573 
z"/>
<path fill="#0369BC" opacity="1.000000" stroke="none" 
	d="
M125.011711,192.007980 
	C125.007935,190.682449 125.001045,189.356934 125.000870,188.031403 
	C124.999474,177.050781 128.446671,174.369614 139.356064,177.220932 
	C140.451675,177.507263 141.756683,179.415329 141.853348,180.657227 
	C142.173828,184.775055 141.986084,188.932434 141.579681,193.534164 
	C135.781281,193.331772 130.396500,192.669876 125.011711,192.007980 
z"/>
<path fill="#0261B5" opacity="1.000000" stroke="none" 
	d="
M125.008942,192.473267 
	C130.396500,192.669876 135.781281,193.331772 141.576309,194.002869 
	C141.994919,199.027298 142.003296,204.042511 142.010040,209.523376 
	C136.667938,208.581314 131.897751,204.225616 125.386795,206.920898 
	C124.999489,202.307861 125.002838,197.623199 125.008942,192.473267 
z"/>
</svg>